<?xml version="1.0" encoding="UTF-8"?><!DOCTYPE svg PUBLIC "-//W3C//DTD SVG 1.1//EN" "http://www.w3.org/Graphics/SVG/1.1/DTD/svg11.dtd"><svg xmlns="http://www.w3.org/2000/svg">
    <symbol id="svg-caviar-burger" viewBox="0 0 20 24">
        <path fill-rule="evenodd" clip-rule="evenodd" d="M4.52211 1.88607C7.65504 -0.256151 12.3888 0.498933 15.2788 2.91114C18.1689 5.32335 19.4663 8.98508 19.8115 12.5542C20.0001 14.5041 19.9337 16.5074 19.2484 18.3614C18.5628 20.2153 17.2019 21.9145 15.2921 22.7901C13.8902 23.4329 12.2867 23.6019 10.7194 23.6243C8.46749 23.6565 6.07823 23.3568 4.32402 22.062C2.82302 20.954 1.97571 19.237 1.635 17.4982C0.722178 12.8396 -0.180343 5.10163 4.52211 1.88607Z"/>
    </symbol>
    <symbol id="svg-fb" viewBox="0 0 20 20">
        <path fill-rule="evenodd" clip-rule="evenodd" d="M0.0239258 9.99993C0.0239258 15.5099 4.48993 19.9759 9.99988 19.9759C15.5099 19.9759 19.9759 15.5099 19.9759 9.99993C19.9759 4.48993 15.5099 0.0239258 9.99988 0.0239258C4.48993 0.0239258 0.0239258 4.48993 0.0239258 9.99993ZM10.5889 10.7399V15.2499H8.78393V10.7409H7.27393V8.98393H8.78393V7.68793C8.78393 6.18493 9.69693 5.36493 11.0319 5.36493C11.6699 5.36493 12.2199 5.41393 12.3799 5.43493V7.00693H11.4549C10.7289 7.00693 10.5889 7.35393 10.5889 7.86193V8.98293H12.3189L12.0939 10.7399H10.5889Z"/>
    </symbol>
    <symbol id="svg-inst" viewBox="0 0 20 20">
        <path fill-rule="evenodd" clip-rule="evenodd" d="M19.9371 9.98809C19.9371 4.49209 15.4821 0.0380859 9.98808 0.0380859C4.49308 0.0380859 0.0380859 4.49309 0.0380859 9.98709C0.0380859 15.4821 4.49308 19.9371 9.98708 19.9371C15.4821 19.9371 19.9371 15.4821 19.9371 9.98809ZM14.7778 5.22306C15.4394 5.88485 15.8111 6.78231 15.8111 7.71809L15.8121 7.71709V12.2831C15.8118 13.2187 15.44 14.1159 14.7784 14.7775C14.1169 15.439 13.2197 15.8108 12.2841 15.8111H7.71808C6.78248 15.8108 5.88527 15.439 5.2237 14.7775C4.56213 14.1159 4.19035 13.2187 4.19008 12.2831V7.71709C4.19035 6.78166 4.562 5.8846 5.22335 5.22306C5.8847 4.56152 6.78165 4.18962 7.71708 4.18909H12.2831C13.2188 4.18935 14.1162 4.56127 14.7778 5.22306ZM14.9811 7.71809V12.2831C14.9808 12.9986 14.6965 13.6847 14.1905 14.1906C13.6846 14.6965 12.9985 14.9808 12.2831 14.9811H7.71708C7.00161 14.9808 6.31552 14.6965 5.8096 14.1906C5.30369 13.6847 5.01935 12.9986 5.01908 12.2831V7.71709C5.01961 7.00179 5.30407 6.31595 5.80996 5.81025C6.31584 5.30455 7.00178 5.02035 7.71708 5.02009H12.2831C12.9985 5.02035 13.6846 5.30469 14.1905 5.8106C14.6965 6.31652 14.9808 7.00261 14.9811 7.71809ZM13.5536 6.44656C13.6704 6.56339 13.7361 6.72186 13.7361 6.88709C13.7361 7.05232 13.6704 7.21078 13.5536 7.32761C13.4368 7.44445 13.2783 7.51009 13.1131 7.51009C12.9478 7.51009 12.7894 7.44445 12.6725 7.32761C12.5557 7.21078 12.4901 7.05232 12.4901 6.88709C12.4901 6.72186 12.5557 6.56339 12.6725 6.44656C12.7894 6.32972 12.9478 6.26409 13.1131 6.26409C13.2783 6.26409 13.4368 6.32972 13.5536 6.44656ZM12.0761 10.0001C12.076 10.2728 12.0222 10.5428 11.9178 10.7947C11.8134 11.0466 11.6604 11.2755 11.4675 11.4682C11.2747 11.661 11.0457 11.8139 10.7937 11.9182C10.5418 12.0225 10.2718 12.0762 9.99908 12.0761C9.72639 12.076 9.45639 12.0222 9.20448 11.9178C8.95257 11.8134 8.7237 11.6604 8.53092 11.4675C8.1416 11.078 7.92295 10.5498 7.92308 9.99909C7.92322 9.4485 8.14206 8.92051 8.53148 8.53128C8.9209 8.14205 9.44899 7.92345 9.99958 7.92359C10.5502 7.92372 11.0781 8.14257 11.4674 8.53199C11.8566 8.9214 12.0752 9.4495 12.0751 10.0001H12.0761ZM12.0544 7.94503C12.5996 8.49001 12.9059 9.22923 12.9061 10.0001H12.9051C12.9051 10.3817 12.83 10.7596 12.684 11.1122C12.5381 11.4648 12.3241 11.7852 12.0543 12.0551C11.7845 12.325 11.4642 12.5391 11.1116 12.6852C10.7591 12.8313 10.3812 12.9065 9.99958 12.9066C9.61796 12.9067 9.24006 12.8316 8.88747 12.6856C8.53487 12.5396 8.21448 12.3256 7.94458 12.0558C7.39951 11.5109 7.09322 10.7718 7.09308 10.0011C7.09295 9.23023 7.39904 8.4909 7.94402 7.94573C8.489 7.40056 9.22823 7.09422 9.99908 7.09409C10.7699 7.09395 11.5092 7.40005 12.0544 7.94503Z"/>
    </symbol>
    <symbol id="svg-vk" viewBox="0 0 20 20">
        <path fill-rule="evenodd" clip-rule="evenodd" d="M15.5246 1.68193C13.8834 0.585317 11.9539 0 9.98 0C7.3333 0.000530241 4.79516 1.05216 2.92366 2.92366C1.05216 4.79516 0.000530241 7.3333 0 9.98C0 11.9539 0.585317 13.8834 1.68193 15.5246C2.77855 17.1658 4.33721 18.445 6.16082 19.2003C7.98443 19.9557 9.99107 20.1533 11.927 19.7682C13.8629 19.3832 15.6412 18.4327 17.0369 17.0369C18.4327 15.6412 19.3832 13.8629 19.7682 11.927C20.1533 9.99107 19.9557 7.98443 19.2003 6.16082C18.445 4.33721 17.1658 2.77855 15.5246 1.68193ZM15.9 13.24C15.9153 13.2656 15.9287 13.2924 15.94 13.32C15.9582 13.372 15.9716 13.4256 15.98 13.48C16.0001 13.552 16.0001 13.628 15.98 13.7C15.9672 13.7394 15.9464 13.7758 15.9189 13.8068C15.8913 13.8377 15.8577 13.8627 15.82 13.88C15.7055 13.9377 15.5781 13.9653 15.45 13.96L13.85 13.99C13.7326 14.0088 13.6125 13.9985 13.5 13.96C13.3879 13.927 13.2803 13.88 13.18 13.82L13.05 13.74C12.8904 13.618 12.743 13.4806 12.61 13.33C12.44 13.14 12.3 12.98 12.18 12.83C12.0713 12.6894 11.9434 12.5649 11.8 12.46C11.754 12.4164 11.6982 12.3846 11.6372 12.3672C11.5763 12.3497 11.5121 12.3473 11.45 12.36C11.4324 12.364 11.4155 12.3707 11.4 12.38C11.3595 12.4049 11.3225 12.4352 11.29 12.47C11.2388 12.5275 11.1951 12.5914 11.16 12.66C11.1066 12.7637 11.0695 12.875 11.05 12.99C11.0206 13.155 11.0072 13.3224 11.01 13.49C11.0094 13.5505 11.0027 13.6108 10.99 13.67C10.977 13.7114 10.9602 13.7516 10.94 13.79L10.92 13.82C10.8771 13.8641 10.8258 13.8993 10.7691 13.9233C10.7125 13.9474 10.6516 13.9598 10.59 13.96H9.87C9.56276 13.9717 9.25561 13.9346 8.96 13.85C8.67371 13.7709 8.39829 13.6567 8.14 13.51C7.91 13.37 7.69 13.23 7.5 13.09C7.347 12.9744 7.20013 12.8509 7.06 12.72L6.9 12.57C6.83918 12.5105 6.78239 12.447 6.73 12.38C6.65 12.3 6.5 12.1 6.28 11.8C6.06 11.5 5.83 11.18 5.62 10.84C5.41 10.5 5.16 10.05 4.86 9.49C4.56 8.93 4.29 8.35 4.04 7.75C4.01467 7.69684 4.00103 7.63887 4 7.58C3.99975 7.54565 4.00656 7.51161 4.02 7.48L4.04 7.44C4.08798 7.39549 4.14493 7.36175 4.20702 7.34105C4.26911 7.32036 4.33491 7.31318 4.4 7.32L6.11 7.31C6.16114 7.31864 6.21135 7.33203 6.26 7.35C6.29229 7.36867 6.32569 7.38536 6.36 7.4L6.39 7.42C6.4531 7.47575 6.50415 7.54381 6.54 7.62C6.55909 7.66455 6.57819 7.70956 6.59747 7.75501C6.66909 7.9238 6.74334 8.0988 6.83 8.28C6.90758 8.44222 6.97522 8.57459 7.0294 8.68063C7.05203 8.72493 7.07232 8.76464 7.09 8.8L7.19 8.99C7.31 9.24 7.43 9.46 7.54 9.65C7.62543 9.80609 7.72591 9.95345 7.84 10.09C7.91618 10.1836 8.00349 10.2675 8.1 10.34C8.15875 10.3914 8.23226 10.4229 8.31 10.43C8.36804 10.4307 8.42569 10.4205 8.48 10.4C8.49 10.4 8.5 10.39 8.51 10.37C8.54244 10.3269 8.56931 10.2798 8.59 10.23C8.62633 10.1328 8.65312 10.0324 8.67 9.93C8.69 9.8 8.71 9.63 8.73 9.41C8.75015 9.14371 8.75015 8.87629 8.73 8.61C8.72178 8.45205 8.70172 8.29495 8.67 8.14C8.65185 8.04005 8.62163 7.94267 8.58 7.85L8.54 7.77C8.47394 7.69214 8.39307 7.62818 8.30209 7.58183C8.2111 7.53548 8.11182 7.50767 8.01 7.5C7.96 7.49 7.97 7.44 8.04 7.34C8.10823 7.26307 8.18947 7.19876 8.28 7.15C8.76286 7.00697 9.26832 6.95609 9.77 7C10.0579 7.00379 10.3453 7.02718 10.63 7.07C10.7047 7.0877 10.7757 7.11814 10.84 7.16C10.9003 7.1923 10.9466 7.24571 10.97 7.31C11.0037 7.37259 11.0273 7.44008 11.04 7.51C11.0535 7.60608 11.0601 7.70298 11.06 7.8V7.80003C11.06 7.92002 11.06 8.04001 11.05 8.15C11.0443 8.21221 11.0419 8.28721 11.039 8.375C11.0368 8.44245 11.0343 8.51745 11.03 8.6C11.02 8.78998 11.02 8.96997 11.02 9.12995V9.13C11.02 9.14914 11.0185 9.17414 11.0167 9.205C11.0138 9.25476 11.01 9.31976 11.01 9.4V9.71C11.01 9.77213 11.0179 9.85001 11.0266 9.93666C11.0278 9.94764 11.0289 9.95876 11.03 9.97C11.0352 10.0574 11.0591 10.1426 11.1 10.22C11.1297 10.2861 11.1785 10.3418 11.24 10.38L11.35 10.41C11.38 10.42 11.44 10.4 11.51 10.34C11.5953 10.2727 11.6756 10.1992 11.75 10.12C11.8646 9.98277 11.9715 9.83921 12.07 9.69L12.0798 9.67496C12.2075 9.4785 12.3537 9.25351 12.5 9C12.757 8.5364 12.9809 8.0552 13.17 7.56C13.1839 7.52033 13.2042 7.48317 13.23 7.45C13.2478 7.42172 13.2717 7.39779 13.3 7.38L13.32 7.36L13.35 7.34C13.3763 7.33184 13.403 7.32516 13.43 7.32C13.4694 7.30984 13.5106 7.30984 13.55 7.32L15.35 7.31C15.4833 7.28987 15.6193 7.29667 15.75 7.33C15.8215 7.35026 15.8868 7.38807 15.94 7.44L15.98 7.5C16.07 7.77 15.76 8.4 15.04 9.38C15.0254 9.39893 15.01 9.41892 14.9938 9.43997C14.8986 9.56348 14.7752 9.72349 14.63 9.92C14.4172 10.1817 14.2297 10.4629 14.07 10.76C14.035 10.8464 14.0249 10.941 14.0408 11.0328C14.0567 11.1247 14.098 11.2103 14.16 11.28C14.3207 11.4622 14.491 11.6358 14.67 11.8H14.68L14.69 11.81L14.7 11.82L14.71 11.83C15.17 12.2427 15.5704 12.7172 15.9 13.24Z"/>
    </symbol>
    <symbol id="svg-caviar-a" viewBox="0 0 18 21">
        <path fill-rule="evenodd" clip-rule="evenodd" d="M0.137585 8.73589C0.850992 4.21867 5.45238 1.45676 9.80433 0.317821C11.1397 -0.0322337 12.6746 -0.258346 13.7987 0.553983C15.1125 1.50533 15.2588 3.38625 15.4268 5.01593C15.6097 6.77793 15.9639 8.5416 16.7089 10.1411C24.0059 25.8015 -2.10906 22.9558 0.137585 8.73589" fill="#8299A3"/>
        <path d="M12.8301 11.534C12.8301 11.906 12.9021 12.176 13.0461 12.344C13.2021 12.512 13.3941 12.596 13.6221 12.596C13.8981 12.596 14.1321 12.524 14.3241 12.38V13.37C14.0001 13.61 13.6641 13.79 13.3161 13.91C12.9801 14.03 12.5961 14.09 12.1641 14.09C11.7081 14.09 11.3181 14.012 10.9941 13.856C10.6701 13.688 10.3821 13.43 10.1301 13.082C9.71011 13.454 9.31411 13.724 8.94211 13.892C8.58211 14.06 8.21011 14.144 7.82611 14.144C7.17811 14.144 6.63811 13.934 6.20611 13.514C5.77411 13.094 5.55811 12.584 5.55811 11.984C5.55811 11.324 5.79211 10.796 6.26011 10.4C6.72811 10.004 7.42411 9.728 8.34811 9.572L9.96811 9.32V8.852C9.96811 8.264 9.85411 7.826 9.62611 7.538C9.39811 7.25 9.03211 7.106 8.52811 7.106C7.74811 7.106 7.00411 7.442 6.29611 8.114L5.99011 7.142C6.49411 6.554 7.05811 6.116 7.68211 5.828C8.31811 5.54 8.94811 5.396 9.57211 5.396C10.6041 5.396 11.4021 5.678 11.9661 6.242C12.5421 6.806 12.8301 7.676 12.8301 8.852V11.534ZM9.44611 10.508C9.00211 10.568 8.68411 10.688 8.49211 10.868C8.31211 11.048 8.22211 11.282 8.22211 11.57C8.22211 11.858 8.30611 12.086 8.47411 12.254C8.64211 12.422 8.87011 12.506 9.15811 12.506C9.29011 12.506 9.42811 12.476 9.57211 12.416C9.71611 12.344 9.84811 12.248 9.96811 12.128V10.418L9.44611 10.508Z" fill="#444547"/>
    </symbol>
    <symbol id="svg-caviar-right" viewBox="0 0 18 21">
        <path fill-rule="evenodd" clip-rule="evenodd" d="M0.137585 8.73589C0.850992 4.21867 5.45238 1.45676 9.80433 0.317821C11.1397 -0.0322337 12.6746 -0.258346 13.7987 0.553983C15.1125 1.50533 15.2588 3.38625 15.4268 5.01593C15.6097 6.77793 15.9639 8.5416 16.7089 10.1411C24.0059 25.8015 -2.10906 22.9558 0.137585 8.73589"/>
    </symbol>
    <symbol id="svg-caviar-t" viewBox="0 0 22 19">
        <path fill-rule="evenodd" clip-rule="evenodd" d="M11.1116 19C6.25188 19.0028 2.61442 14.83 0.719484 10.6515C0.136201 9.36839 -0.34596 7.86434 0.328186 6.60978C1.11371 5.1428 3.0658 4.69657 4.75117 4.26746C6.57283 3.80555 8.36664 3.16971 9.92744 2.16749C25.2027 -7.6352 26.4044 18.99 11.1116 19" fill="#CFC9B8"/>
        <path d="M12.2839 7.504H14.9119V8.602H12.2839V12.994C12.2839 13.558 12.3979 13.972 12.6259 14.236C12.8539 14.488 13.1959 14.614 13.6519 14.614C13.9039 14.614 14.1439 14.572 14.3719 14.488C14.5999 14.392 14.8399 14.242 15.0919 14.038V15.064C14.7559 15.448 14.3479 15.742 13.8679 15.946C13.3879 16.15 12.8599 16.252 12.2839 16.252C11.4799 16.252 10.8019 16.03 10.2499 15.586C9.70991 15.13 9.43991 14.428 9.43991 13.48V8.602H8.10791V8.026L12.2839 4.732V7.504Z" fill="#444547"/>
    </symbol>
    <symbol id="svg-caviar-e" viewBox="0 0 22 19">
        <path fill-rule="evenodd" clip-rule="evenodd" d="M12.6797 0.487467C17.2627 1.1947 20.0578 5.71992 21.2091 9.99788C21.5631 11.3115 21.7897 12.8199 20.9629 13.925C19.999 15.2124 18.0909 15.3546 16.4359 15.519C14.648 15.6958 12.8588 16.0425 11.2346 16.7719C-4.6617 23.923 -1.74349 -1.73784 12.6797 0.487467" fill="#5A7477"/>
        <path d="M14.6761 11.092V12.154C14.1961 12.514 13.6861 12.778 13.1461 12.946C12.6061 13.102 12.0001 13.18 11.3281 13.18C9.88811 13.18 8.73011 12.778 7.85411 11.974C6.99011 11.17 6.55811 10.096 6.55811 8.752C6.55811 7.48 6.97211 6.43 7.80011 5.602C8.62811 4.774 9.67811 4.36 10.9501 4.36C12.1021 4.36 13.0201 4.738 13.7041 5.494C14.4001 6.25 14.7481 7.324 14.7481 8.716H9.52811C9.56411 9.676 9.84011 10.438 10.3561 11.002C10.8721 11.554 11.5561 11.83 12.4081 11.83C12.8401 11.83 13.2301 11.776 13.5781 11.668C13.9381 11.56 14.3041 11.368 14.6761 11.092ZM11.9041 7.618C11.9041 6.838 11.8141 6.25 11.6341 5.854C11.4541 5.458 11.2081 5.26 10.8961 5.26C10.5601 5.26 10.2721 5.47 10.0321 5.89C9.79211 6.298 9.63611 6.874 9.56411 7.618H11.9041Z" fill="#444547"/>
    </symbol>
    <symbol id="svg-landing-net" viewBox="0 0 26 14">
        <path fill-rule="evenodd" clip-rule="evenodd" d="M25.8267 0.172974H0V0.905915C0 6.54709 4.40267 13.3577 9.88 13.3577C15.08 13.3577 19.4133 7.11533 19.734 1.63886H25.8007L25.8267 0.172974ZM14.1267 1.64709C13.9906 2.41723 13.7274 3.1621 13.3467 3.85415C12.3508 3.43352 11.4344 2.86041 10.634 2.15768C10.7669 1.98748 10.8911 1.81454 11.0067 1.63886H14.1267V1.64709ZM14.1267 5.71533C13.4097 6.66976 12.5311 7.50461 11.5267 8.18591L11.544 8.17768C12.7438 8.58525 14.0054 8.80497 15.2793 8.82827C15.9072 8.04682 16.442 7.20166 16.874 6.30827C15.941 6.1913 15.0213 5.99281 14.1267 5.71533ZM9.73267 7.4118C8.64392 6.79421 7.69293 5.98008 6.93333 5.01533C7.91819 4.55717 8.82643 3.96331 9.62867 3.25297C10.4785 4.00763 11.4462 4.63268 12.4973 5.10591C11.7381 6.03427 10.7999 6.81682 9.73267 7.4118ZM2.84267 6.23415C3.27793 7.1543 3.82163 8.02457 4.46333 8.82827C5.6322 8.77481 6.78608 8.55553 7.88667 8.17768C6.87706 7.4793 5.99815 6.62465 5.28667 5.64944C4.49059 5.90877 3.67307 6.10435 2.84267 6.23415ZM8.56267 2.15768C7.822 2.80894 6.98012 3.34781 6.06667 3.75533C5.71705 3.09081 5.47456 2.38012 5.34733 1.64709H8.19C8.30556 1.81729 8.42978 1.98748 8.56267 2.15768ZM4.498 4.3565C4.0591 3.50299 3.76653 2.58832 3.63133 1.64709H1.56867C1.6605 2.73598 1.89635 3.80953 2.27067 4.84239C3.02608 4.73979 3.77113 4.57726 4.498 4.3565ZM5.91933 10.3106C7.24273 10.1272 8.52876 9.7523 9.73267 9.19886C11.0106 9.78641 12.3804 10.173 13.7887 10.3436C12.7238 11.289 11.3363 11.8386 9.88 11.8918C8.40101 11.8414 6.9924 11.2791 5.91933 10.3106ZM14.9413 4.42239C15.7674 4.65599 16.6147 4.8159 17.472 4.90003C17.8605 3.84706 18.1052 2.75104 18.2 1.63886H15.808C15.6809 2.60541 15.3881 3.54569 14.9413 4.42239Z"/>
    </symbol>
    <symbol id="svg-caviar-checkbox" viewBox="0 0 22 19" >
        <path fill-rule="evenodd" clip-rule="evenodd" d="M12.6795 0.487467C17.2624 1.1947 20.0575 5.71992 21.2089 9.99788C21.5628 11.3115 21.7894 12.8199 20.9627 13.925C19.9988 15.2124 18.0906 15.3546 16.4356 15.519C14.6478 15.6958 12.8585 16.0425 11.2343 16.7719C-4.66195 23.923 -1.74373 -1.73784 12.6795 0.487467Z"/>
    </symbol>
    <symbol id="svg-caviar-modal" viewBox="0 0 345 301">
        <path fill-rule="evenodd" clip-rule="evenodd" d="M172.23 295C96.9041 295.044 40.5235 230.255 11.152 165.378C2.11111 145.457 -5.36238 122.104 5.08688 102.626C17.2625 79.8487 47.52 72.9205 73.6431 66.2579C101.879 59.0861 129.683 49.214 153.875 33.6531C390.642 -118.546 409.269 294.845 172.23 295Z" fill="#E24115"/>
    </symbol>
</svg>
