<svg xmlns="http://www.w3.org/2000/svg" viewBox="0 0 267.73 274.84"><defs><style>.cls-1{fill:none;}.cls-2{fill:#1d1d1b;}.cls-3{fill:#90a7b7;}.cls-4{fill:#dcd6c8;}.cls-5{fill:#dededd;}.cls-6{fill:#627f88;}.cls-7{fill:#f7f6f6;}.cls-8{fill:#fff;}.cls-9{fill:#464b4a;}.cls-10{fill:#ce5728;}.cls-11{fill:#2d374e;}</style></defs><title>Business Card 3</title><g id="Crop_Marks" data-name="Crop Marks"><path class="cls-1" d="M62.22,227.37v0l.63-.1Z"/><path class="cls-2" d="M80.33,47,68.73,54.28l-1.5-2.4,3.56-2.23L57.69,28.71l-3.56,2.23-1.5-2.4,11.18-7q4.84-3,8.5-2.9a6.32,6.32,0,0,1,5.48,3,6.2,6.2,0,0,1,.88,4.51A10,10,0,0,1,76.17,31a11.5,11.5,0,0,1,6.69-.88,6.54,6.54,0,0,1,4.35,3A6.73,6.73,0,0,1,87.53,40Q85.75,43.62,80.33,47ZM69.62,33.68l1-.61a4.25,4.25,0,0,0,2-2.93,5.72,5.72,0,0,0-1-4.1,5.39,5.39,0,0,0-2.87-2.48,3.85,3.85,0,0,0-3.3.53l-1.28.8Zm2.49,2-.89.56L77,45.52l1.39-.87q4.88-3,2.14-7.42A5.82,5.82,0,0,0,77,34.48Q74.9,33.94,72.11,35.68Z"/><path class="cls-2" d="M111.62,9.5l-2.82.77-.86-3.17L99.57,9.37l2.66,9.82,6.34-1.72-.74-2.73,2.82-.76L113,22.78l-2.82.77-.82-3-6.34,1.72,2.83,10.44,8.72-2.37L113.7,27l2.82-.77,1.72,6.34-22.87,6.2L94.64,36l4.1-1.11L92.27,11.06l-4.1,1.11-.74-2.73,22.51-6.1Z"/><path class="cls-2" d="M139.66,4.92l-4.24-.14-.8,24.41,11.41.37.18-5.61,2.92.1-.29,8.71-26.05-.86.09-2.83,4.24.14.81-24.68-4.24-.14.09-2.83,16,.52Z"/><path class="cls-2" d="M191.41,17.77l-3.79-1.34-5.36,15.19q-2,5.6-6,7.41a12,12,0,0,1-9.17,0Q161.2,37,158.72,33t-.43-9.81L163.65,8l-3.83-1.35.94-2.67L175.7,9.22l-.94,2.67-4.09-1.44L165.3,25.64q-1.38,3.92-.23,6.67a7.19,7.19,0,0,0,4.56,4,6.48,6.48,0,0,0,5.67-.37,9.54,9.54,0,0,0,3.9-5.35l5.37-15.19-4.17-1.48.94-2.67,11,3.89Z"/><path class="cls-2" d="M223,37.82l2.25,1.86-5.67,6.86-2.18-1.8q2.58-5.92-1.89-9.61a8.42,8.42,0,0,0-7.85-1.86,14.86,14.86,0,0,0-7.68,5.26q-3.89,4.72-4,8.91a8.41,8.41,0,0,0,3.3,7A10.08,10.08,0,0,0,201,55.63a6,6,0,0,0,1.7.63l5.7-6.9-3.24-2.67,1.77-2.15,11.54,9.53-1.77,2.15-2.57-2.12-6.71,8.13a32.87,32.87,0,0,1-10.14-5.71q-6.27-5.17-7.19-11.26t3.67-11.65a15.37,15.37,0,0,1,10.81-6,16,16,0,0,1,11.83,4,13.72,13.72,0,0,1,5.08,8Z"/><path class="cls-2" d="M229,92.8l-2.42,1.47-7.43-12.21,2.42-1.47,1.73,2.85,4.29-5.5L222.76,70,216,71.43l1.8,3-2.42,1.47-5.13-8.42L212.65,66l1.54,2.53,29.38-5.81,2.28,3.74L227.44,90.26Zm.39-17.18,6.48-8.32L225.6,69.42Z"/><path class="cls-2" d="M256.69,130l-.34-2.85,3.76-.45-1.05-8.84-11.2,1.33.82,6.89,2.81-.33.34,2.85-9.07,1.08-.34-2.86,3.13-.37-.82-6.89-9.93,1.18.57,4.81-2.81.33-2-16.45,2.81-.34.5,4.22,24.52-2.92-.5-4.21,2.81-.34,2.78,23.34Z"/><path class="cls-2" d="M231.64,164.55l-2.8-.44L231.08,150l2.79.44-.52,3.29,6.83-1.42,1.45-9.15-6.08-3.32-.54,3.43-2.79-.44,1.54-9.74,2.8.44-.46,2.93L262.24,151l-.68,4.33-29.46,6.25Zm11.41-12.85,10.32-2.16-9.19-5Z"/><path class="cls-2" d="M216.06,194.58l-2.5-1.32,4.51-8.56,8.78,1.06a12.09,12.09,0,0,0,4.83-.11,4.46,4.46,0,0,0,2.49-2.33l.21-.4-9.53-5-2,3.8-2.5-1.32,7.44-14.14,2.51,1.32-2,3.72,21.85,11.51,2-3.72,2.51,1.32-6.08,11.55q-5.83,11.07-12.69,7.45a6.81,6.81,0,0,1-3.35-3.88,10.25,10.25,0,0,1,0-6.05,9.71,9.71,0,0,1-4.13,2.65,15.21,15.21,0,0,1-5.61.37l-5.32-.48ZM246,190.37l.55-1-9.45-5-.3.57a5.78,5.78,0,0,0,6.18,8.21A4.79,4.79,0,0,0,246,190.37Z"/><path class="cls-2" d="M201.74,240.79l-15.89-18.9-3.18,2.67-1.82-2.17,12-10.07,1.82,2.17-3.15,2.64L203,230.79l-6.43-22,2.83-2.38,20.15,9.78-11.16-13.28-3.11,2.61-1.82-2.17,8.87-7.46,1.82,2.17-3.25,2.73,15.89,18.9L230,217l1.82,2.17-8.32,7-21.78-10.44,6.82,23-8.21,6.9-1.82-2.17Z"/><path class="cls-3" d="M40.22,157.62c.5-.1,1-.19,1.52-.26l-1.85.25a23.94,23.94,0,0,1,3.45-.19,6.94,6.94,0,0,0,0-13.89,31.86,31.86,0,0,0-6.82.71c.07,3,.75,7.16,2,13.56a8.58,8.58,0,0,0,1.66-.17Z"/><path class="cls-3" d="M75.29,159.84a15.66,15.66,0,0,1-.82-7.55,12.07,12.07,0,0,1,.91-3.15l-.22-.24a6.94,6.94,0,0,0-9.82,0,7.89,7.89,0,0,0-2,4.91L62.8,159a7,7,0,0,0,2,4.91,6.94,6.94,0,0,0,9.82,0A7.28,7.28,0,0,0,76,161.79C75.78,161.16,75.53,160.5,75.29,159.84Z"/><path class="cls-1" d="M110.59,154c-.54-.3-1.08-.6-1.64-.87C109.51,153.4,110.05,153.69,110.59,154Z"/><path class="cls-3" d="M179.8,154c-1.11,2.15-2.65,2.06-9,3.36s-11.9,0-16,.17a25.66,25.66,0,0,1-8-.84c-2.73-.54-6-1.92-10.82.4s-7.19,2.62-8.67,2.51l-.43,0a6.21,6.21,0,0,1-2-.53,1.43,1.43,0,0,1-.79,0,6.18,6.18,0,0,1-2.46-1c-1-.85-2.4-.89-3.69-1.05a14.42,14.42,0,0,1-5.37-2.05h0c1,1.56-.12,4.83-.54,6a3.37,3.37,0,0,0,.65,4,.73.73,0,0,1,0,.94,2.84,2.84,0,0,1-.71.68c1.21,1,4.33-1.53,10.41-1.79,6.79-.29,7.62-1.67,8.9-1.76s14.15-1,21.48-1.5,11.22-1.2,17-2c8.78-1.61,10-3.84,10.13-4.15a1.19,1.19,0,0,0,.11-.31A2.14,2.14,0,0,0,179.8,154Z"/><polygon class="cls-4" points="112.62 166.04 112.62 166.04 112.62 166.04 112.62 166.04"/><path class="cls-4" d="M112.34,166.37l0,0Z"/><path class="cls-4" d="M180,155.92v-.7H180a1.19,1.19,0,0,1-.11.31c-.17.31-1.35,2.54-10.13,4.15-5.82.79-9.71,1.52-17,2s-20.2,1.41-21.48,1.5-2.11,1.47-8.9,1.76c-6.08.26-9.2,2.82-10.41,1.79-2.79,2-11.19,4-11.19,4a57,57,0,0,1-8.51,1c-2.26.16-7.9.65-11.3-.3l-.37,1.15s9.39,2.41,30-1.81c2.69-.55,7.25.63,15.48-.57,7-1.77,13.25-4,29-5.74C168.48,162.49,181,161.36,180,155.92Z"/><path class="cls-1" d="M89.21,172c1.22-.06,2.28-.14,3-.19a57,57,0,0,0,8.51-1s3.24-.78,6.36-1.86c-5.81,1.35-14.08,2.84-15.18,2.88C91.39,171.8,90.42,171.89,89.21,172Z"/><path class="cls-1" d="M172.69,159.07l-.77.18Z"/><path d="M162.39,160.73l3.41-.48Z"/><polygon points="169.25 159.77 169.24 159.77 169.25 159.77 169.25 159.77"/><path d="M113.75,166.79h0a4.42,4.42,0,0,1-1,.18A4.41,4.41,0,0,0,113.75,166.79Z"/><path d="M112.31,166.92a1.42,1.42,0,0,0,.3,0A1.42,1.42,0,0,1,112.31,166.92Z"/><path d="M111.91,166.73a.94.94,0,0,0,.31.17A.93.93,0,0,1,111.91,166.73Z"/><path d="M89.21,172c1.21-.07,2.18-.16,2.69-.18,1.1,0,9.37-1.53,15.18-2.88a21,21,0,0,0,4.83-2.17,2.84,2.84,0,0,0,.71-.68.73.73,0,0,0,0-.94,3.37,3.37,0,0,1-.65-4c.42-1.14,1.59-4.41.54-6h0a14.42,14.42,0,0,0,5.37,2.05c1.29.16,2.7.2,3.69,1.05a6.18,6.18,0,0,0,2.46,1,1.43,1.43,0,0,0,.79,0,6.21,6.21,0,0,0,2,.53l.43,0c1.48.11,3.84-.19,8.67-2.51s8.09-.94,10.82-.4a25.66,25.66,0,0,0,8,.84c4.13-.15,9.67,1.14,16-.17s7.87-1.22,9-3.29c-1.71-4.1-8.35-2.85-16.15-3.67-14.54-2-20.74-2.89-28.2-6.47S123,137.46,118,136.1s-11.28-2.47-14.61-3.89a25.23,25.23,0,0,0-8.17-1.82c-2.52-.29-9.52-2-9.52-2A423.71,423.71,0,0,0,36.78,126s-4,22.74,7.29,48.06c.76,0,33.34-3.58,36.85-2.61h0A29.23,29.23,0,0,0,89.21,172Z"/><path d="M180,154.81a1.56,1.56,0,0,1,0,.42h0A1.57,1.57,0,0,0,180,154.81Z"/><path d="M179.76,155.7l.09-.16Z"/><path d="M179.51,156l.14-.16Z"/><path d="M179.66,155.85l.09-.13Z"/><path d="M172.69,159.07c4.52-1.12,6.19-2.36,6.82-3-.67.72-2.51,2.06-7.59,3.22h0Z"/><path class="cls-4" d="M165.8,160.26l3.44-.49Z"/><path class="cls-4" d="M179.65,155.86h0Z"/><path class="cls-4" d="M112.22,166.9l.1,0Z"/><path class="cls-4" d="M179.75,155.73v0Z"/><path class="cls-4" d="M112.71,167h0Z"/><path class="cls-4" d="M179.51,156h0Z"/><path class="cls-4" d="M169.25,159.77h0l-3.44.49-3.41.48h0C165,160.43,167.32,160.1,169.25,159.77Z"/><path class="cls-4" d="M89.21,172a29.23,29.23,0,0,1-8.3-.49h0A27.58,27.58,0,0,0,89.21,172Z"/><path class="cls-4" d="M172.69,159.07c5.72-1.33,7.13-2.76,7.3-3.84h0a1.19,1.19,0,0,1-.11.31l-.09.16v0l-.09.13h0l-.14.16h0C178.88,156.71,177.21,158,172.69,159.07Z"/><polygon class="cls-4" points="171.92 159.25 171.92 159.25 171.92 159.25 171.92 159.25"/><path class="cls-5" d="M112.62,166a2.09,2.09,0,0,1-.28.33A2,2,0,0,0,112.62,166Z"/><path class="cls-5" d="M112.3,166.4a3.86,3.86,0,0,1-.39.32A4,4,0,0,0,112.3,166.4Z"/><path class="cls-6" d="M131.48,142c-2.82-1.41-7.14-4.85-11.78-5.56-1-.16-1.35-.44-2.38-.65a8.86,8.86,0,0,0-4.5.63,3,3,0,0,0-1.37.73c-.31.35-.45.82-.77,1.17a4.6,4.6,0,0,1-2.1.92,7.33,7.33,0,0,0-4.29,5.5s0,0,0,0c-.11,1.24.6,1.91,1.06,3,.53,1.27.52,2.76,1.43,3.87a6.1,6.1,0,0,0,2.16,1.46c.56.27,1.11.57,1.64.87l1,.54,1,.55a14.42,14.42,0,0,0,5.37,2.05c1.29.16,2.7.2,3.69,1.05a6.18,6.18,0,0,0,2.46,1,1.43,1.43,0,0,0,.79,0,2.47,2.47,0,0,0,1.24-1c.45-.67.67-1.47,1.08-2.17s1-1.35,1.44-2.1c.21-.41,1.87-2,3.05-3.34a1.89,1.89,0,0,1-1-1.61.69.69,0,0,1,.08-.35.75.75,0,0,1,.32-.25,2.58,2.58,0,0,1,1.78-.26l.13.06C133.11,145.5,130.77,145.15,131.48,142Z"/><path class="cls-6" d="M110.59,154l1,.54h0Z"/><path class="cls-6" d="M105.36,147.79c-.46-1.11-1.17-1.78-1.06-3C104.19,146,104.89,146.68,105.36,147.79Z"/><path class="cls-6" d="M111.55,154.54l1,.55-1-.55Z"/><path class="cls-5" d="M43.93,127.63l-.15-.06a5.22,5.22,0,0,1-.78-.35,15.39,15.39,0,0,1-2.41-1.75.55.55,0,0,0-.33-.07,5.71,5.71,0,0,0-.71.06,2.53,2.53,0,0,1-1.07,0,3.92,3.92,0,0,0-1.07-.23l-.48-.07v.05l.4.13a4.31,4.31,0,0,1,1,.37,2.44,2.44,0,0,0,.86.17,4.83,4.83,0,0,1,.64.09.74.74,0,0,1,.38.19l.06.07a8.12,8.12,0,0,0,2,1.74,4,4,0,0,0,.61.26l.28.1c.22.09.43.18.65.29l.54.25a6.53,6.53,0,0,0,.39-.63l.14-.28c-.13,0-.25-.06-.39-.11Z"/><path class="cls-5" d="M37.49,131.62a1.05,1.05,0,0,0-.15-.12.89.89,0,0,1-.29-.3,7.75,7.75,0,0,1-.52-2.18c-.13,1.43-.23,2.7-.21,3.15l1.49-.06a2.5,2.5,0,0,0-.25-.43Z"/><path class="cls-5" d="M39.05,131.55a2.1,2.1,0,0,0-.29-.12,1.5,1.5,0,0,1-.51-.26,3.49,3.49,0,0,1-.77-1.8c-.05-.22-.11-.44-.17-.65l0-.1a5.45,5.45,0,0,0-.36-.87l-.24-.45-.09.87c0,.13,0,.25.07.41l.06.38a7.82,7.82,0,0,0,.5,2.13.69.69,0,0,0,.23.23,1.24,1.24,0,0,1,.18.15l.07.08a3,3,0,0,1,.32.55c.6,0,1.1-.06,1.53-.11a2.05,2.05,0,0,0-.4-.37Z"/><path class="cls-5" d="M40.16,131.35a2,2,0,0,1-1.75-1.91,6.84,6.84,0,0,0-.29-.81,5.92,5.92,0,0,0-.95-1.32l-.43-.52v.12l.13.25.26.49a5.67,5.67,0,0,1,.37.9l0,.1c.06.21.12.44.17.66a3.38,3.38,0,0,0,.7,1.69,1.32,1.32,0,0,0,.44.22,2.29,2.29,0,0,1,.32.13l.13.08a2.45,2.45,0,0,1,.53.52,5.57,5.57,0,0,0,1.19-.3,2.07,2.07,0,0,0-.39-.19A3.91,3.91,0,0,0,40.16,131.35Z"/><path class="cls-5" d="M38.82,124.95a3,3,0,0,0,1-.19c.27-.08.53-.15.76-.19a13.81,13.81,0,0,1-2.23-.23,3.54,3.54,0,0,1-1.27-.49c0,.19-.09.55-.15,1h.59A4.43,4.43,0,0,1,38.82,124.95Z"/><path class="cls-5" d="M41.15,124.77c-.17-.11-.76.05-1.24.19a2.8,2.8,0,0,1-1.15.19,3.46,3.46,0,0,0-1-.09,3.11,3.11,0,0,1,.76.19,2.52,2.52,0,0,0,1,0,5.86,5.86,0,0,1,.74-.06.75.75,0,0,1,.46.12A15.21,15.21,0,0,0,43.1,127a6.87,6.87,0,0,0,.75.34l.15.06.52.2.4.12a5.79,5.79,0,0,0,.26-.75,5.19,5.19,0,0,1-1.33-.58C43,125.92,42,125.37,41.15,124.77Z"/><path class="cls-5" d="M43,128.51l-.27-.1a4.27,4.27,0,0,1-.65-.27,8.4,8.4,0,0,1-2-1.78l-.06-.07a.53.53,0,0,0-.28-.13,4.69,4.69,0,0,0-.61-.08,2.55,2.55,0,0,1-1-.2,4.14,4.14,0,0,0-.91-.35l-.36-.12,0,.16.36.2a5.48,5.48,0,0,1,.75.44,3.09,3.09,0,0,0,.72.34,4.4,4.4,0,0,1,.59.26.88.88,0,0,1,.3.25l.17.24a4.87,4.87,0,0,0,1.56,1.65,3.13,3.13,0,0,0,.61.23l.36.12a4.16,4.16,0,0,1,.7.35l.44.28a9.9,9.9,0,0,0,.75-.9l-.51-.23C43.45,128.69,43.25,128.59,43,128.51Z"/><path class="cls-5" d="M45.1,125.84c-.45-.22,0-.35-1.12-.66a19.89,19.89,0,0,0-2.34-.48l-.27,0c.86.57,1.73,1.1,2.59,1.58a5,5,0,0,0,1.28.56C45.34,126.33,45.33,125.95,45.1,125.84Z"/><path class="cls-5" d="M42.23,129.5l-.35-.11a3.33,3.33,0,0,1-.65-.25,5.11,5.11,0,0,1-1.64-1.71l-.17-.24a.67.67,0,0,0-.23-.19,4.18,4.18,0,0,0-.56-.24,3.23,3.23,0,0,1-.77-.36,5.32,5.32,0,0,0-.72-.43l-.28-.16,0,.19.38.33c.16.13.32.26.48.41s.31.26.47.39a4.88,4.88,0,0,1,.64.55,1.39,1.39,0,0,1,.22.3l.19.37a3.3,3.3,0,0,0,1.23,1.59,2.68,2.68,0,0,0,.63.22l.42.12a3,3,0,0,1,.74.4l.2.17a8.14,8.14,0,0,0,.86-.77l-.4-.26A4,4,0,0,0,42.23,129.5Z"/><path class="cls-5" d="M41.42,130.48l-.4-.12a2.88,2.88,0,0,1-.68-.24A3.51,3.51,0,0,1,39,128.44l-.19-.37a1.19,1.19,0,0,0-.19-.25,4.67,4.67,0,0,0-.61-.53c-.16-.13-.34-.26-.49-.4s-.31-.27-.47-.4l-.28-.24,0,.24c.17.23.36.45.56.68a6.09,6.09,0,0,1,1,1.37,7,7,0,0,1,.3.83,1.81,1.81,0,0,0,1.59,1.77,4,4,0,0,1,.47.12,2.34,2.34,0,0,1,.56.3,5.76,5.76,0,0,0,.52-.26,5.53,5.53,0,0,0,.5-.32l-.16-.13A2.82,2.82,0,0,0,41.42,130.48Z"/><path class="cls-7" d="M37.64,131.47a1.24,1.24,0,0,0-.18-.15.69.69,0,0,1-.23-.23,7.82,7.82,0,0,1-.5-2.13l-.06-.38c0-.15,0-.28-.07-.41l-.08.85A7.75,7.75,0,0,0,37,131.2a.89.89,0,0,0,.29.3,1.05,1.05,0,0,1,.15.12l.06.07a2.5,2.5,0,0,1,.25.43H38a3,3,0,0,0-.32-.55Z"/><path class="cls-7" d="M39.28,131.44l-.13-.08a2.29,2.29,0,0,0-.32-.13,1.32,1.32,0,0,1-.44-.22,3.38,3.38,0,0,1-.7-1.69c-.05-.22-.11-.45-.17-.66l0-.1a5.67,5.67,0,0,0-.37-.9l-.26-.49-.13-.25,0,.39.24.45a5.45,5.45,0,0,1,.36.87l0,.1c.06.21.11.43.17.65a3.49,3.49,0,0,0,.77,1.8,1.5,1.5,0,0,0,.51.26,2.1,2.1,0,0,1,.29.12l.11.07a2.05,2.05,0,0,1,.4.38l.25,0A2.45,2.45,0,0,0,39.28,131.44Z"/><path class="cls-7" d="M40.21,131.14a1.81,1.81,0,0,1-1.59-1.77,7,7,0,0,0-.3-.83,6.09,6.09,0,0,0-1-1.37c-.2-.23-.39-.45-.56-.68l0,.3.43.52a5.92,5.92,0,0,1,.95,1.32,6.84,6.84,0,0,1,.29.81,2,2,0,0,0,1.75,1.91,3.91,3.91,0,0,1,.45.12,2.07,2.07,0,0,1,.39.19l.24-.09a2.34,2.34,0,0,0-.56-.3A4,4,0,0,0,40.21,131.14Z"/><path class="cls-7" d="M41.49,130.28l-.42-.12a2.68,2.68,0,0,1-.63-.22,3.3,3.3,0,0,1-1.23-1.59L39,128a1.39,1.39,0,0,0-.22-.3,4.88,4.88,0,0,0-.64-.55c-.16-.12-.33-.25-.47-.39s-.32-.28-.48-.41l-.38-.33,0,.26.28.24c.16.13.32.26.47.4s.32.27.49.4a4.67,4.67,0,0,1,.61.53,1.19,1.19,0,0,1,.19.25l.19.37a3.51,3.51,0,0,0,1.32,1.69,2.88,2.88,0,0,0,.68.24l.4.12a2.82,2.82,0,0,1,.69.38l.16.13.17-.14-.2-.17A3,3,0,0,0,41.49,130.28Z"/><path class="cls-7" d="M42.3,129.3l-.36-.12a3.13,3.13,0,0,1-.61-.23,4.87,4.87,0,0,1-1.56-1.65l-.17-.24a.88.88,0,0,0-.3-.25,4.4,4.4,0,0,0-.59-.26,3.09,3.09,0,0,1-.72-.34,5.48,5.48,0,0,0-.75-.44l-.36-.2,0,.23.28.16a5.32,5.32,0,0,1,.72.43,3.23,3.23,0,0,0,.77.36,4.18,4.18,0,0,1,.56.24.67.67,0,0,1,.23.19l.17.24a5.11,5.11,0,0,0,1.64,1.71,3.33,3.33,0,0,0,.65.25l.35.11a4,4,0,0,1,.66.33l.4.26.15-.16-.44-.28A4.16,4.16,0,0,0,42.3,129.3Z"/><path class="cls-7" d="M43.13,128.31l-.28-.1a4,4,0,0,1-.61-.26,8.12,8.12,0,0,1-2-1.74l-.06-.07a.74.74,0,0,0-.38-.19,4.83,4.83,0,0,0-.64-.09,2.44,2.44,0,0,1-.86-.17,4.31,4.31,0,0,0-1-.37l-.4-.13,0,.22.36.12a4.14,4.14,0,0,1,.91.35,2.55,2.55,0,0,0,1,.2,4.69,4.69,0,0,1,.61.08.53.53,0,0,1,.28.13l.06.07a8.4,8.4,0,0,0,2,1.78,4.27,4.27,0,0,0,.65.27l.27.1c.21.08.41.18.64.29l.51.23.12-.18-.54-.25C43.55,128.49,43.35,128.39,43.13,128.31Z"/><path class="cls-7" d="M39.91,125c.47-.13,1.07-.3,1.24-.19.9.59,1.81,1.15,2.71,1.65a5.19,5.19,0,0,0,1.33.58c0-.07,0-.14.05-.21a5,5,0,0,1-1.28-.56c-.86-.48-1.73-1-2.59-1.58-.27,0-.52-.08-.75-.1s-.49.11-.76.19a3,3,0,0,1-1,.19,4.43,4.43,0,0,0-1.26-.1H37v.32l.48.07a3.92,3.92,0,0,1,1.07.23,2.53,2.53,0,0,0,1.07,0,5.71,5.71,0,0,1,.71-.06.55.55,0,0,1,.33.07A15.39,15.39,0,0,0,43,127.21a5.22,5.22,0,0,0,.78.35l.15.06.53.21c.14,0,.26.07.39.11l.08-.19-.4-.12-.52-.2-.15-.06a6.87,6.87,0,0,1-.75-.34,15.21,15.21,0,0,1-2.37-1.73.75.75,0,0,0-.46-.12,5.86,5.86,0,0,0-.74.06,2.52,2.52,0,0,1-1,0,3.11,3.11,0,0,0-.76-.19,3.46,3.46,0,0,1,1,.09A2.8,2.8,0,0,0,39.91,125Z"/><path class="cls-5" d="M65.73,128.7c0-.15,0-.31,0-.46,0-.31,0-.63-.07-1a8.89,8.89,0,0,1-.19,1c0,.15-.07.3-.1.45s-.09.48-.14.82l-.05.35a9.53,9.53,0,0,1-.38,1.8h0l.83-.07h0c0-.18,0-.37.06-.59,0-.45.1-1,.11-1.41t0-.09c0-.22,0-.43,0-.64Z"/><path class="cls-5" d="M61.71,127.36l.06-.06a.68.68,0,0,1,.35-.18,4.44,4.44,0,0,1,.59-.08,2.24,2.24,0,0,0,.79-.16,4,4,0,0,1,.88-.34,4.35,4.35,0,0,0,.64-.24,5.06,5.06,0,0,1-.72.14,3.6,3.6,0,0,0-1,.22,2.32,2.32,0,0,1-1,0,5.25,5.25,0,0,0-.65,0,.51.51,0,0,0-.3.07l-.43.35a2.41,2.41,0,0,0-.32,1.41A11.73,11.73,0,0,0,61.71,127.36Z"/><path class="cls-5" d="M71.21,127.19a4,4,0,0,0-.66-.15,10.1,10.1,0,0,0-1.8-.12h-.81a4.09,4.09,0,0,1-1.35-.22,5.31,5.31,0,0,0,1.14.49l.06,0,.66.22a5.52,5.52,0,0,1,.63.3,5.85,5.85,0,0,0,.84.39l.23.08a2.46,2.46,0,0,1,.86.41h0a4.14,4.14,0,0,0,.22-1.22A1.17,1.17,0,0,0,71.21,127.19Z"/><path class="cls-5" d="M70.55,128.56a3.41,3.41,0,0,0-.46-.17l-.24-.08a6,6,0,0,1-.87-.4,5.41,5.41,0,0,0-.61-.29l-.65-.22-.06,0a5.57,5.57,0,0,1-1.15-.5,10,10,0,0,0,1,.78,4.57,4.57,0,0,1,.63.49,3,3,0,0,1,.39.5,2.06,2.06,0,0,0,.72.75l.31.15a3.27,3.27,0,0,1,.39.19,2.24,2.24,0,0,1,.23.18h0a2.49,2.49,0,0,0,.75-1.13h0A3.58,3.58,0,0,0,70.55,128.56Z"/><path class="cls-5" d="M67.39,130.56a4.11,4.11,0,0,0-.07-.91,3.65,3.65,0,0,0-.42-.93l-1.11-1.94.1-.06,0,0,.09-.07h0l.08-.08h0l.12-.15.06-.1h0l.05-.12a3.11,3.11,0,0,0,2,0c-.34-.13-.58-.28-1.15-.52a2.11,2.11,0,0,1-1.22-1.09.43.43,0,0,0-.83,0,2.92,2.92,0,0,1-.79,1c-.32.31-.84.35-1.55.5a.8.8,0,0,0,.3,0,4.07,4.07,0,0,1,1.15-.1,3.82,3.82,0,0,0,1.11-.1l.06.19h0v0l-.05,0,.09.13a3.32,3.32,0,0,1-.92.38,3.81,3.81,0,0,0-.84.32,2.34,2.34,0,0,1-.87.19,4.3,4.3,0,0,0-.56.08.49.49,0,0,0-.25.12l-.06.06a10.93,10.93,0,0,1-1.22,1.2c0,.33.06.65.09.92a1.46,1.46,0,0,0,.05.23,4.62,4.62,0,0,0,1.37-1.48l.15-.22a.81.81,0,0,1,.28-.23,4.05,4.05,0,0,1,.54-.24,2.84,2.84,0,0,0,.65-.31,5,5,0,0,1,.69-.41,3.22,3.22,0,0,0,.8-.53l.14.14-.12.09.16.11c0,.05-.08.09-.12.14l0,0,0,0,.09,0s0,0,0,0h.09v0l.19-.07v0h0s0,0,0,.07c.17.46.31.91.45,1.35l.15.47v0a5.2,5.2,0,0,1,.21.82v.1a6.63,6.63,0,0,1,0,1,6.09,6.09,0,0,0,0,.87h0l.58-.07.23,0h0A4.6,4.6,0,0,1,67.39,130.56Z"/><path class="cls-5" d="M68.47,130.83a1.91,1.91,0,0,1-.6-1.18,3,3,0,0,0-.21-.68,3.49,3.49,0,0,0-.51-.7c-.28-.32-.58-.68-.89-1.07l.81,1.42a3.79,3.79,0,0,1,.44,1,4.25,4.25,0,0,1,.08,1,4.46,4.46,0,0,0,.05.79h0a5,5,0,0,0,1-.42h0Z"/><path class="cls-5" d="M66.43,129.66v-.09a5,5,0,0,0-.21-.79v0l-.15-.47-.17-.5c0,.16,0,.31,0,.46s0,.3,0,.46v.19c0,.21,0,.42,0,.65t0,.09c0,.46-.06,1-.11,1.43q0,.3-.05.55h0l.64-.08h0a6.21,6.21,0,0,1,0-.9A6.49,6.49,0,0,0,66.43,129.66Z"/><path class="cls-5" d="M69.86,129.91a3.11,3.11,0,0,0-.36-.18l-.33-.16a2.25,2.25,0,0,1-.79-.81,2.82,2.82,0,0,0-.36-.47,4.42,4.42,0,0,0-.61-.47,10,10,0,0,1-1.06-.83c.33.42.65.81.95,1.15a3.64,3.64,0,0,1,.54.74,3.2,3.2,0,0,1,.23.72,1.74,1.74,0,0,0,.53,1.07,1.76,1.76,0,0,0,.22.14h0c.48-.28.9-.57,1.2-.77h0A2,2,0,0,0,69.86,129.91Z"/><path class="cls-5" d="M66.62,126.49a3.85,3.85,0,0,0,1.32.23h.81a10.28,10.28,0,0,1,1.83.12,5,5,0,0,1,.57.12c-.22-.47-.91-.38-1.88-.52-.27,0-.47-.08-.65-.12A4.41,4.41,0,0,1,66.62,126.49Z"/><path class="cls-5" d="M63.24,126.47a2.86,2.86,0,0,1,.69-.18,3.18,3.18,0,0,0-.88.09,1.8,1.8,0,0,1-.79-.1l-.43.14.51,0A2.31,2.31,0,0,0,63.24,126.47Z"/><path class="cls-5" d="M63.5,129.49a5.59,5.59,0,0,1,.89-1.27,5.22,5.22,0,0,0,.86-1.24,5.22,5.22,0,0,1-.63.61c-.14.12-.29.24-.43.37s-.3.25-.45.37a4.29,4.29,0,0,0-.56.49,1.1,1.1,0,0,0-.17.24l-.17.34a3.22,3.22,0,0,1-1.2,1.56h0a4,4,0,0,0,1,.5,3,3,0,0,0,.58-1.21A6.45,6.45,0,0,1,63.5,129.49Z"/><path class="cls-5" d="M62.67,129.32l.17-.34a1.28,1.28,0,0,1,.2-.28,4.49,4.49,0,0,1,.59-.51c.15-.11.3-.23.43-.36s.29-.26.44-.38a3.81,3.81,0,0,0,.78-.78,4,4,0,0,1-.71.45,4.89,4.89,0,0,0-.66.4,3,3,0,0,1-.7.34,3.84,3.84,0,0,0-.52.23.62.62,0,0,0-.21.17l-.15.22A4.75,4.75,0,0,1,60.84,130a2,2,0,0,0,.61.79l.1,0A3,3,0,0,0,62.67,129.32Z"/><path class="cls-5" d="M65,129.52c.05-.34.1-.6.15-.83s.07-.3.11-.46.13-.57.17-.86a7.43,7.43,0,0,1-.43,1l-.23.44a5,5,0,0,0-.32.8l0,.09c-.05.19-.1.4-.15.6a4.22,4.22,0,0,1-.52,1.44,7.77,7.77,0,0,0,.81,0h0a8.41,8.41,0,0,0,.4-1.84Z"/><path class="cls-5" d="M64.23,129.6l0-.09a5.21,5.21,0,0,1,.34-.83l.24-.45c.12-.23.24-.45.34-.68a8.41,8.41,0,0,1-.63.81,5.44,5.44,0,0,0-.86,1.22,6.28,6.28,0,0,0-.26.74,3.49,3.49,0,0,1-.56,1.22l.16.05a3.68,3.68,0,0,0,.49.09,3.48,3.48,0,0,0,.57-1.47C64.12,130,64.17,129.79,64.23,129.6Z"/><path class="cls-7" d="M84.19,130.06l-.22-.11a5.86,5.86,0,0,1-.78-.5,5.52,5.52,0,0,0-.58-.39c-.19-.11-.41-.21-.62-.31l-.06,0a5.31,5.31,0,0,1-1.06-.65,2.84,2.84,0,0,1-.36-.24h0a2.84,2.84,0,0,0,.36.24,4.09,4.09,0,0,0,1.3.41l.79.11h0a10.1,10.1,0,0,1,1.77.37l.38.13a1.22,1.22,0,0,0-.12-.17,1.24,1.24,0,0,0-.18-.14h0a10.29,10.29,0,0,0-1.8-.38h0l-.78-.11a3.85,3.85,0,0,1-1.28-.41,2.6,2.6,0,0,1-.32-.22h0a2.6,2.6,0,0,0,.32.22,4.4,4.4,0,0,0,2,.12l-.2-.08-.16-.08a3.16,3.16,0,0,1-1.91-.3h0a1,1,0,0,0-.13-1,.68.68,0,0,0-.71-.14.36.36,0,0,0-.18.1.67.67,0,0,0-.12.2,1.65,1.65,0,0,0-.11.46,4.88,4.88,0,0,1-.87-.06,4.07,4.07,0,0,0-1.16-.06.76.76,0,0,1-.28-.05h-.55a2.06,2.06,0,0,0,.86.25,3.18,3.18,0,0,1,.88,0,2.85,2.85,0,0,0-.71.08,2.31,2.31,0,0,1-.88-.13,5.38,5.38,0,0,0-.67-.14.69.69,0,0,0-.44.06,14,14,0,0,1-2.37,1.28l-.32.1a1.89,1.89,0,0,0,0,.2c.12,0,.25-.06.37-.11a14.15,14.15,0,0,0,2.4-1.3.51.51,0,0,1,.31,0,5.25,5.25,0,0,1,.64.14,2.32,2.32,0,0,0,1,.13,3.6,3.6,0,0,1,1-.08,5,5,0,0,0,.73,0h0a4.36,4.36,0,0,1-.67.15,4,4,0,0,0-.92.22,2.24,2.24,0,0,1-.81,0,4.43,4.43,0,0,0-.59,0A.68.68,0,0,0,76,128l-.07.05a7.46,7.46,0,0,1-2,1.34,3.6,3.6,0,0,1-.57.15l.15.17a3.27,3.27,0,0,0,.5-.14,7.72,7.72,0,0,0,2.08-1.37l.07-.05a.49.49,0,0,1,.27-.08,4.3,4.3,0,0,1,.57,0,2.34,2.34,0,0,0,.89-.06,3.8,3.8,0,0,1,.87-.2,4.56,4.56,0,0,0,.7-.16v.05a3.94,3.94,0,0,1-.72.33,5,5,0,0,0-.74.31,2.84,2.84,0,0,1-.69.22,4,4,0,0,0-.57.16.81.81,0,0,0-.3.19l-.18.2a4.48,4.48,0,0,1-1.63,1.31,2.11,2.11,0,0,1-.37.1l.15.17.29-.09a4.7,4.7,0,0,0,1.7-1.36l.18-.2a.62.62,0,0,1,.23-.14,3.85,3.85,0,0,1,.54-.15,3,3,0,0,0,.74-.24,4.89,4.89,0,0,1,.71-.3,4.19,4.19,0,0,0,.72-.33h0a4,4,0,0,1-.83.63l-.49.32c-.15.11-.32.2-.48.29a4.48,4.48,0,0,0-.65.43,1.28,1.28,0,0,0-.23.25l-.22.32a3,3,0,0,1-1.31,1.3l-.16,0,.2.15h0a3.22,3.22,0,0,0,1.4-1.38l.21-.31a1.1,1.1,0,0,1,.2-.21,4.29,4.29,0,0,1,.62-.41c.17-.1.34-.19.49-.3l.48-.31a5.49,5.49,0,0,0,.68-.49,5.36,5.36,0,0,1-1,1.08,5.59,5.59,0,0,0-1.06,1.13,6.45,6.45,0,0,0-.38.72,4.32,4.32,0,0,1-.51.89l.23,0a5.19,5.19,0,0,0,.46-.84,6.28,6.28,0,0,1,.37-.7,5.45,5.45,0,0,1,1-1.09,8.4,8.4,0,0,0,.73-.71c-.13.21-.28.41-.43.62l-.3.41a5.21,5.21,0,0,0-.45.78l0,.09c-.08.18-.16.39-.23.58a7,7,0,0,1-.43,1l.22,0a8.1,8.1,0,0,0,.39-.9c.07-.19.15-.39.23-.57l0-.08a5,5,0,0,1,.43-.75l.29-.41a7.42,7.42,0,0,0,.56-.88c-.08.29-.18.56-.29.83l-.17.44c-.08.22-.16.47-.26.81l-.1.34c-.12.42-.26.87-.4,1.24h.21c.14-.37.27-.8.38-1.2l.1-.34c.1-.33.18-.57.26-.79l.17-.43a8.89,8.89,0,0,0,.32-1c0-.12,0-.25,0-.38h0c0,.13,0,.25,0,.38,0,.33,0,.65-.07,1,0,.15,0,.3,0,.46l0,.2c0,.2,0,.41-.06.64v.09c-.07.44-.19.94-.3,1.38v0h.2c.11-.44.24-.95.31-1.4v-.09c0-.23,0-.44.06-.65l0-.19c0-.15,0-.3,0-.46s0-.31,0-.46a8.86,8.86,0,0,0,0-.91h0a8.86,8.86,0,0,1,0,.91c0,.17.07.35.09.52l.08.48v0a5,5,0,0,1,.09.81s0,.06,0,.09a6.49,6.49,0,0,1-.13,1l-.07.37h.2l.06-.34a6.62,6.62,0,0,0,.13-1s0-.07,0-.1a5.18,5.18,0,0,0-.1-.84v0l-.08-.48c-.07-.45-.15-.92-.25-1.4h0l.8,2a3.65,3.65,0,0,1,.29,1,4.11,4.11,0,0,1-.05.91c0,.11,0,.22,0,.33h.2c0-.1,0-.2,0-.31a4.25,4.25,0,0,0,.06-1,3.79,3.79,0,0,0-.3-1l-.61-1.52-.25-.44h0l.25.44c.25.43.5.83.73,1.18a3.49,3.49,0,0,1,.41.76,3,3,0,0,1,.12.7,2.13,2.13,0,0,0,.32,1.1l.21,0a1.83,1.83,0,0,1-.33-1.08,3.19,3.19,0,0,0-.13-.75,3.64,3.64,0,0,0-.43-.81c-.25-.38-.52-.81-.78-1.27l-.25-.31h0l.25.31a10,10,0,0,0,.93,1,4.42,4.42,0,0,1,.54.55,2.82,2.82,0,0,1,.29.51,2.25,2.25,0,0,0,.67.91,3.47,3.47,0,0,0,.31.2,3.11,3.11,0,0,1,.33.23l0,0,.19-.08s-.07-.08-.11-.12a3.27,3.27,0,0,0-.36-.24l-.29-.19a2.06,2.06,0,0,1-.61-.84,3,3,0,0,0-.31-.55,4.58,4.58,0,0,0-.56-.57,10,10,0,0,1-.88-.91,5.57,5.57,0,0,0,1.07.65l.06,0c.21.1.43.21.61.31a5.4,5.4,0,0,1,.56.37,6,6,0,0,0,.8.52l.22.11a3.41,3.41,0,0,1,.43.23,4.22,4.22,0,0,1,.47.39.46.46,0,0,0,.06-.18v0a4,4,0,0,0-.43-.35A3.57,3.57,0,0,0,84.19,130.06Zm-4.77-2.8a4.36,4.36,0,0,1-.77,0A4.36,4.36,0,0,0,79.42,127.25Zm0,.14h0Z"/><path class="cls-7" d="M74.59,126.9l-.27,0q-.68.31-1.35.59l0,.23c.58-.24,1.17-.49,1.75-.77Z"/><path class="cls-5" d="M79.35,132.24c.11-.44.23-.94.3-1.38v-.09c0-.22,0-.43.06-.64l0-.2c0-.15,0-.31,0-.46,0-.31.05-.63.07-1a8.89,8.89,0,0,1-.32,1l-.17.43c-.08.22-.16.47-.26.79L79,131c-.12.4-.24.82-.38,1.19l.72,0Z"/><path class="cls-5" d="M78.17,130.53a5.21,5.21,0,0,1,.45-.78l.3-.41c.15-.21.3-.41.43-.62a8.4,8.4,0,0,1-.73.71,5.45,5.45,0,0,0-1,1.09,6.28,6.28,0,0,0-.37.7,5.24,5.24,0,0,1-.46.83l.71.09a7.06,7.06,0,0,0,.42-.94c.07-.19.15-.4.23-.58Z"/><path class="cls-5" d="M77.65,127.57a2.32,2.32,0,0,1-1-.13,5.25,5.25,0,0,0-.64-.14.51.51,0,0,0-.31,0,14.15,14.15,0,0,1-2.4,1.3c-.11,0-.23.07-.35.11a2.15,2.15,0,0,0,.41.81,3.52,3.52,0,0,0,.56-.15,7.46,7.46,0,0,0,2-1.34L76,128a.68.68,0,0,1,.37-.13,4.43,4.43,0,0,1,.59,0,2.24,2.24,0,0,0,.81,0,4,4,0,0,1,.92-.22,4.36,4.36,0,0,0,.67-.15,5,5,0,0,1-.73,0A3.6,3.6,0,0,0,77.65,127.57Z"/><path class="cls-5" d="M79.43,127.44h0Z"/><path class="cls-5" d="M80.17,131.94a6.49,6.49,0,0,0,.13-1s0-.06,0-.09a5,5,0,0,0-.09-.81v0l-.08-.48c0-.17-.07-.35-.09-.52,0,.16,0,.31,0,.46s0,.3,0,.46l0,.19c0,.21,0,.42-.06.65v.09c-.07.45-.2,1-.31,1.4l.56,0Z"/><path class="cls-5" d="M78.82,131l.1-.34c.1-.33.18-.58.26-.81l.17-.44c.11-.27.2-.54.29-.83a7.42,7.42,0,0,1-.56.88l-.29.41a5,5,0,0,0-.43.75l0,.08c-.08.18-.16.38-.23.57a8.16,8.16,0,0,1-.38.89l.72.06C78.57,131.84,78.7,131.4,78.82,131Z"/><path class="cls-5" d="M77.12,127a.76.76,0,0,0,.28.05,4.07,4.07,0,0,1,1.16.06,4.88,4.88,0,0,0,.87.06,1.65,1.65,0,0,1,.11-.46.67.67,0,0,1,.12-.2.36.36,0,0,1,.18-.1.68.68,0,0,1,.71.14,1,1,0,0,1,.13,1h0a3.16,3.16,0,0,0,1.91.3l.16.08.2.08a4.4,4.4,0,0,1-2-.12,3.85,3.85,0,0,0,1.28.41l.78.11h0a10.29,10.29,0,0,1,1.8.38h0a1.24,1.24,0,0,1,.18.14,1.22,1.22,0,0,1,.12.17l-.38-.13A10.1,10.1,0,0,0,83,128.6h0l-.79-.11a4.09,4.09,0,0,1-1.3-.41,5.31,5.31,0,0,0,1.06.65l.06,0c.21.1.43.21.62.31a5.52,5.52,0,0,1,.58.39,5.86,5.86,0,0,0,.78.5l.22.11a3.57,3.57,0,0,1,.46.25,4,4,0,0,1,.42.35c.06-.74.42-1.15-.07-1.73s-1.38-.56-2.27-1a6.28,6.28,0,0,1-1.7-1.12c-.45-.42-.61-1-1.64-.42s-.5.59-1.95.64h-.33Z"/><path class="cls-5" d="M80.1,128.12h0c.1.48.18.95.25,1.4l.08.48v0a5.18,5.18,0,0,1,.1.84s0,.06,0,.1a6.62,6.62,0,0,1-.13,1l-.06.34.79,0c0-.11,0-.22,0-.33a4.11,4.11,0,0,0,.05-.91,3.65,3.65,0,0,0-.29-1Z"/><path class="cls-5" d="M85,130.84a.46.46,0,0,0,.05-.15A.47.47,0,0,1,85,130.84Z"/><path class="cls-5" d="M81.81,130.41a3.19,3.19,0,0,1,.13.75,1.83,1.83,0,0,0,.33,1.07,8.31,8.31,0,0,0,1.44-.47l0,0a3.11,3.11,0,0,0-.33-.23,3.47,3.47,0,0,1-.31-.2,2.25,2.25,0,0,1-.67-.91,2.82,2.82,0,0,0-.29-.51,4.42,4.42,0,0,0-.54-.55,10,10,0,0,1-.93-1c.26.46.53.89.78,1.27A3.64,3.64,0,0,1,81.81,130.41Z"/><path class="cls-5" d="M84.54,130.47a3.41,3.41,0,0,0-.43-.23l-.22-.11a6,6,0,0,1-.8-.52,5.4,5.4,0,0,0-.56-.37c-.18-.1-.4-.21-.61-.31l-.06,0a5.57,5.57,0,0,1-1.07-.65,10,10,0,0,0,.88.91,4.58,4.58,0,0,1,.56.57,3,3,0,0,1,.31.55,2.06,2.06,0,0,0,.61.84l.29.19a3.27,3.27,0,0,1,.36.24s.07.08.11.11a2.58,2.58,0,0,0,1.11-.81A4.18,4.18,0,0,0,84.54,130.47Z"/><path class="cls-5" d="M81.74,131.17a3,3,0,0,0-.12-.7,3.49,3.49,0,0,0-.41-.76c-.23-.35-.48-.76-.73-1.18l.61,1.52a3.79,3.79,0,0,1,.3,1,4.25,4.25,0,0,1-.06,1c0,.1,0,.2,0,.3h.12a3.56,3.56,0,0,0,.64-.07A2.14,2.14,0,0,1,81.74,131.17Z"/><path class="cls-5" d="M75.32,131.42a3,3,0,0,0,1.31-1.3l.22-.32a1.28,1.28,0,0,1,.23-.25,4.48,4.48,0,0,1,.65-.43c.16-.09.33-.19.48-.29l.49-.32a4,4,0,0,0,.83-.63h0a4.19,4.19,0,0,1-.72.33,4.89,4.89,0,0,0-.71.3,3,3,0,0,1-.74.24,3.85,3.85,0,0,0-.54.15.62.62,0,0,0-.23.14l-.18.2a4.7,4.7,0,0,1-1.7,1.36l-.28.08a6.11,6.11,0,0,0,.76.78Z"/><path class="cls-5" d="M77,131.13a6.45,6.45,0,0,1,.38-.72,5.59,5.59,0,0,1,1.06-1.13,5.36,5.36,0,0,0,1-1.08,5.49,5.49,0,0,1-.68.49l-.48.31c-.16.11-.33.21-.49.3a4.29,4.29,0,0,0-.62.41,1.1,1.1,0,0,0-.2.21l-.21.31a3.22,3.22,0,0,1-1.4,1.38h0a2.52,2.52,0,0,0,.73.31l.44.09A4.36,4.36,0,0,0,77,131.13Z"/><path class="cls-5" d="M74.63,130.41a4.48,4.48,0,0,0,1.63-1.31l.18-.2a.81.81,0,0,1,.3-.19,4,4,0,0,1,.57-.16,2.84,2.84,0,0,0,.69-.22,5,5,0,0,1,.74-.31,3.94,3.94,0,0,0,.72-.33v-.05a4.56,4.56,0,0,1-.7.16,3.8,3.8,0,0,0-.87.2,2.34,2.34,0,0,1-.89.06,4.3,4.3,0,0,0-.57,0,.49.49,0,0,0-.27.08l-.07.05A7.72,7.72,0,0,1,74,129.58a3.15,3.15,0,0,1-.48.13l.14.16c.24.23.43.44.6.64A2.06,2.06,0,0,0,74.63,130.41Z"/><path class="cls-5" d="M73.25,128.44a14,14,0,0,0,2.37-1.28.69.69,0,0,1,.44-.06,5.38,5.38,0,0,1,.67.14,2.31,2.31,0,0,0,.88.13,2.85,2.85,0,0,1,.71-.08,3.18,3.18,0,0,0-.88,0,2.06,2.06,0,0,1-.86-.25h.12c-1.14,0-2.09-.12-2.09-.12s-1.57-.28-1.6.35c0,.06,0,.13,0,.2l1.34-.58.27,0h.1c-.58.27-1.16.53-1.74.76a3.11,3.11,0,0,0,0,.86Z"/><path class="cls-7" d="M68.73,126.92h0a10.1,10.1,0,0,1,1.8.12,4,4,0,0,1,.66.15h0a.81.81,0,0,0-.06-.22h0a5,5,0,0,0-.57-.12,10.28,10.28,0,0,0-1.83-.12h-.81a3.85,3.85,0,0,1-1.32-.23,4.41,4.41,0,0,0,2-.16h0l-.38-.11h0a3.16,3.16,0,0,1-1.95,0s0-.08,0-.11a1.29,1.29,0,0,0-.58-1,.62.62,0,0,0-.72.23.43.43,0,0,0-.11.2,1,1,0,0,0,0,.28,2.32,2.32,0,0,0,0,.25,5.75,5.75,0,0,1-.75,0,4.07,4.07,0,0,0-1.15.1.8.8,0,0,1-.3,0h0l-.42.11h0a1.8,1.8,0,0,0,.79.1,3.18,3.18,0,0,1,.88-.09,2.86,2.86,0,0,0-.69.18,2.31,2.31,0,0,1-.89,0l-.51,0h0l-.23.08a1.41,1.41,0,0,0-.7.58l.05,0,.43-.35a.51.51,0,0,1,.3-.07,5.25,5.25,0,0,1,.65,0,2.32,2.32,0,0,0,1,0,3.6,3.6,0,0,1,1-.22,5.13,5.13,0,0,0,.67-.13h0a4.44,4.44,0,0,1-.59.22,4,4,0,0,0-.88.34,2.24,2.24,0,0,1-.79.16,4.44,4.44,0,0,0-.59.08.68.68,0,0,0-.35.18l-.06.06a11.73,11.73,0,0,1-1.08,1.09h0c0,.08,0,.17,0,.25h0a10.93,10.93,0,0,0,1.22-1.2l.06-.06a.49.49,0,0,1,.25-.12,4.3,4.3,0,0,1,.56-.08,2.34,2.34,0,0,0,.87-.19,3.81,3.81,0,0,1,.84-.32,5.1,5.1,0,0,0,.6-.22l0,.06a4.37,4.37,0,0,1-.6.38,5,5,0,0,0-.69.41,2.84,2.84,0,0,1-.65.31,4.05,4.05,0,0,0-.54.24.81.81,0,0,0-.28.23l-.15.22a4.62,4.62,0,0,1-1.37,1.48h0a1.53,1.53,0,0,0,.07.19h0a4.75,4.75,0,0,0,1.47-1.57l.15-.22a.62.62,0,0,1,.21-.17,3.84,3.84,0,0,1,.52-.23,3,3,0,0,0,.7-.34,4.89,4.89,0,0,1,.66-.4,4.42,4.42,0,0,0,.6-.37l0,0a4.35,4.35,0,0,1-.68.67c-.14.12-.29.24-.44.38s-.29.24-.43.36a4.49,4.49,0,0,0-.59.51,1.28,1.28,0,0,0-.2.28l-.17.34a3,3,0,0,1-1.12,1.47l-.1,0h0l.19.13h0a3.22,3.22,0,0,0,1.2-1.56l.17-.34a1.1,1.1,0,0,1,.17-.24,4.29,4.29,0,0,1,.56-.49c.15-.12.31-.24.45-.37s.29-.25.43-.37a5.22,5.22,0,0,0,.63-.61,5.22,5.22,0,0,1-.86,1.24,5.59,5.59,0,0,0-.89,1.27,6.45,6.45,0,0,0-.27.77,3,3,0,0,1-.58,1.21h0l.21.06h0a3.49,3.49,0,0,0,.56-1.22,6.28,6.28,0,0,1,.26-.74,5.44,5.44,0,0,1,.86-1.22,8.41,8.41,0,0,0,.63-.81c-.1.23-.22.45-.34.68l-.24.45a5.21,5.21,0,0,0-.34.83l0,.09c-.05.19-.1.4-.15.61a3.48,3.48,0,0,1-.57,1.47h0l.24,0h0a4.22,4.22,0,0,0,.52-1.44c0-.2.09-.41.15-.6l0-.09a5,5,0,0,1,.32-.8l.23-.44a7.43,7.43,0,0,0,.43-1c0,.3-.1.58-.17.86s-.07.3-.11.46-.1.49-.15.83l-.05.35a8.41,8.41,0,0,1-.4,1.84h.22a9.53,9.53,0,0,0,.38-1.8l.05-.35c.05-.34.09-.59.14-.82s.07-.3.1-.45a8.89,8.89,0,0,0,.19-1c0,.33.06.65.07,1,0,.15,0,.31,0,.46v.2c0,.2,0,.41,0,.64t0,.09c0,.45-.06,1-.11,1.41,0,.22,0,.42-.06.59l.2,0q0-.25.05-.55c0-.46.1-1,.11-1.43t0-.09c0-.23,0-.44,0-.65v-.19c0-.15,0-.31,0-.46s0-.31,0-.46l.17.5.15.47v0a5,5,0,0,1,.21.79v.09a6.49,6.49,0,0,1,0,1,6.21,6.21,0,0,0,0,.9l.2,0a6.09,6.09,0,0,1,0-.87,6.63,6.63,0,0,0,0-1v-.1a5.2,5.2,0,0,0-.21-.82v0l-.15-.47c-.11-.34-.23-.7-.35-1.05l.06,0v0h0l.93,1.64a3.65,3.65,0,0,1,.42.93,4.11,4.11,0,0,1,.07.91,4.6,4.6,0,0,0,.06.83l.19,0a4.46,4.46,0,0,1-.05-.79,4.25,4.25,0,0,0-.08-1,3.79,3.79,0,0,0-.44-1l-.81-1.42c.31.39.61.75.89,1.07a3.49,3.49,0,0,1,.51.7,3,3,0,0,1,.21.68,1.91,1.91,0,0,0,.6,1.18l.15.09.2-.11a1.76,1.76,0,0,1-.22-.14,1.74,1.74,0,0,1-.53-1.07,3.2,3.2,0,0,0-.23-.72,3.64,3.64,0,0,0-.54-.74c-.3-.34-.62-.73-.95-1.15a10,10,0,0,0,1.06.83,4.42,4.42,0,0,1,.61.47,2.82,2.82,0,0,1,.36.47,2.25,2.25,0,0,0,.79.81l.33.16a3.11,3.11,0,0,1,.36.18A2,2,0,0,1,70,130l.12-.08,0,0a2.24,2.24,0,0,0-.23-.18,3.27,3.27,0,0,0-.39-.19l-.31-.15a2.06,2.06,0,0,1-.72-.75,3,3,0,0,0-.39-.5,4.57,4.57,0,0,0-.63-.49,10,10,0,0,1-1-.78,5.57,5.57,0,0,0,1.15.5l.06,0,.65.22a5.41,5.41,0,0,1,.61.29,6,6,0,0,0,.87.4l.24.08a3.41,3.41,0,0,1,.46.17,3.58,3.58,0,0,1,.39.24l.07-.19a2.46,2.46,0,0,0-.86-.41l-.23-.08a5.85,5.85,0,0,1-.84-.39,5.52,5.52,0,0,0-.63-.3l-.66-.22-.06,0a5.31,5.31,0,0,1-1.14-.49,4.09,4.09,0,0,0,1.35.22Z"/><path class="cls-5" d="M52,130.51a7.19,7.19,0,0,0,.35-2l0-.35c0-.35.07-.6.11-.84s.05-.31.08-.46.1-.57.13-.87a7.43,7.43,0,0,1-.39,1l-.21.45a5,5,0,0,0-.28.82l0,.09c0,.19-.08.4-.12.6a3.21,3.21,0,0,1-.61,1.69,1.38,1.38,0,0,1-.46.27,1.93,1.93,0,0,0-.26.13h0a5.19,5.19,0,0,0,1.13.13,1.78,1.78,0,0,1,.11-.2l.06-.08a1.14,1.14,0,0,1,.16-.15A.63.63,0,0,0,52,130.51Z"/><path class="cls-5" d="M50.11,130.94l.12-.08a2.12,2.12,0,0,1,.29-.14,1.21,1.21,0,0,0,.4-.23,3.1,3.1,0,0,0,.56-1.58c0-.2.07-.42.12-.61l0-.09a5.21,5.21,0,0,1,.29-.85l.21-.46c.11-.23.22-.46.31-.69a8.41,8.41,0,0,1-.59.84,5.44,5.44,0,0,0-.8,1.26,6.27,6.27,0,0,0-.23.76,2.41,2.41,0,0,1-.87,1.59,1.67,1.67,0,0,1-.35.16l.48.17Z"/><path class="cls-5" d="M49.47,124.88a1.92,1.92,0,0,0,.73.07,4.07,4.07,0,0,1,1.15-.16,5.75,5.75,0,0,0,.75-.08s0-.07,0-.1c-.08-.53.06-1.11.3-1.12v0c.52-.17.94.41,1.05,1.34v0a3,3,0,0,0,1.89,0l.3.12a4.13,4.13,0,0,1-1.82.21,3.85,3.85,0,0,0,1.33.16l.79,0h0l.69,0c.25.07.5.13.76.23a11,11,0,0,0-1.44,0h0l-.8,0a4.09,4.09,0,0,1-1.36-.16,5.31,5.31,0,0,0,1.16.44l.06,0,.67.19a5.53,5.53,0,0,1,.65.27,5.85,5.85,0,0,0,.86.35l.23.06a3.56,3.56,0,0,1,.5.16,5.34,5.34,0,0,1,.71.39,2.85,2.85,0,0,0,.56.29c.15-.57.19-1.08-.89-1.65-1.25-.65-1.73-.5-3.11-1.11s-1.64-.55-2.1-1.19-.77-.85-1.23-.63a.61.61,0,0,0-.34.91c.19.39-.61,1.15-1.53,1.11a5.9,5.9,0,0,0-1.14,0h0A5.44,5.44,0,0,1,49.47,124.88Z"/><path class="cls-5" d="M55.26,130.61a2.14,2.14,0,0,1-.47-1.51,4.11,4.11,0,0,0-.12-.9,3.65,3.65,0,0,0-.47-.91l-1-1.65-.07,0c.15.38.3.76.43,1.12l.17.46,0,0a5.19,5.19,0,0,1,.25.81l0,.1a6.63,6.63,0,0,1,.06,1,3.07,3.07,0,0,0,.18,1.31,1.68,1.68,0,0,0,.17.26l.1.14,0,.08v0a9.19,9.19,0,0,0,1-.18A1.7,1.7,0,0,1,55.26,130.61Z"/><path class="cls-5" d="M50.62,129a6.44,6.44,0,0,1,.23-.78,5.59,5.59,0,0,1,.83-1.31,5.22,5.22,0,0,0,.8-1.28,5.23,5.23,0,0,1-.6.64c-.14.12-.28.25-.41.39s-.28.27-.43.39a4.29,4.29,0,0,0-.54.52,1.09,1.09,0,0,0-.16.24l-.15.35a3.22,3.22,0,0,1-1.12,1.61,2.65,2.65,0,0,1-.61.25l-.15.05a6.43,6.43,0,0,0,1,.59,2,2,0,0,0,.52-.2A2.24,2.24,0,0,0,50.62,129Z"/><path class="cls-5" d="M53.26,130.55a1.17,1.17,0,0,1,0,.28,1.28,1.28,0,0,0,0,.13v.16c.37,0,.76,0,1.13-.08h0l-.1-.13a1.85,1.85,0,0,1-.19-.28,3.19,3.19,0,0,1-.2-1.4,6.49,6.49,0,0,0-.05-1l0-.09a5,5,0,0,0-.24-.78l0,0-.17-.46-.19-.49c0,.16,0,.31,0,.46s0,.3,0,.46l0,.19c0,.21,0,.42.06.65v.09c0,.46,0,1,0,1.43S53.25,130.33,53.26,130.55Z"/><path class="cls-5" d="M56.6,129.71a2.89,2.89,0,0,0-.32-.18,2.54,2.54,0,0,1-.39-.22,1.91,1.91,0,0,1-.66-1.15,3,3,0,0,0-.25-.67,3.49,3.49,0,0,0-.55-.67c-.29-.3-.62-.65-.94-1l.88,1.38a3.8,3.8,0,0,1,.49,1,4.25,4.25,0,0,1,.12.95,2,2,0,0,0,.41,1.38,2,2,0,0,0,.38.27l0,0a3.71,3.71,0,0,0,1.25-.57A1.89,1.89,0,0,0,56.6,129.71Z"/><path class="cls-5" d="M58.11,129.09a3.59,3.59,0,0,0-.89-.76,3.11,3.11,0,0,0-.37-.16l-.34-.14a2.25,2.25,0,0,1-.83-.77,2.82,2.82,0,0,0-.38-.45,4.42,4.42,0,0,0-.63-.44,10,10,0,0,1-1.1-.78c.35.4.69.78,1,1.1a3.64,3.64,0,0,1,.58.71,3.2,3.2,0,0,1,.26.71,1.74,1.74,0,0,0,.58,1,2.37,2.37,0,0,0,.36.2,3,3,0,0,1,.35.19,2.07,2.07,0,0,1,.53.53,9.25,9.25,0,0,0,1-.89Z"/><path class="cls-5" d="M48.1,128.75a4.48,4.48,0,0,0,1.35-1.59l.14-.23a.81.81,0,0,1,.26-.24,4,4,0,0,1,.53-.27,2.84,2.84,0,0,0,.64-.35,5,5,0,0,1,.67-.45,4.47,4.47,0,0,0,.57-.4l0-.06a5.17,5.17,0,0,1-.58.24,3.81,3.81,0,0,0-.82.36A2.34,2.34,0,0,1,50,126a4.3,4.3,0,0,0-.56.11.49.49,0,0,0-.25.13l-.05.07a7.72,7.72,0,0,1-1.78,1.74,3.93,3.93,0,0,1-.58.28h0a2.87,2.87,0,0,0,.47.8h0l.33-.13A2.87,2.87,0,0,0,48.1,128.75Z"/><path class="cls-5" d="M58.54,127.32a5.2,5.2,0,0,0-.68-.37,3.41,3.41,0,0,0-.47-.15l-.24-.07a6,6,0,0,1-.88-.36,5.39,5.39,0,0,0-.62-.26l-.66-.19-.06,0a5.57,5.57,0,0,1-1.17-.44,10,10,0,0,0,1,.73,4.57,4.57,0,0,1,.66.46,3,3,0,0,1,.41.48,2.06,2.06,0,0,0,.76.71l.32.13a3.27,3.27,0,0,1,.4.17,3.75,3.75,0,0,1,.94.8l.08.08a3.5,3.5,0,0,0,.78-1.32l0-.08A3,3,0,0,1,58.54,127.32Z"/><path class="cls-5" d="M53,131v-.07a1.46,1.46,0,0,1,0-.15,1,1,0,0,0,0-.24c0-.23,0-.54,0-.89s.05-1,0-1.41v-.09c0-.22,0-.43-.06-.64l0-.19c0-.15,0-.31,0-.46,0-.31-.07-.63-.12-1a8.91,8.91,0,0,1-.14,1c0,.15-.06.3-.08.46s-.07.49-.1.83l0,.35a7.24,7.24,0,0,1-.37,2.05.82.82,0,0,1-.26.29l-.13.12-.05.06,0,.09h.05l1.27,0Z"/><path class="cls-5" d="M48.47,125.37a.69.69,0,0,1,.42-.14,5.37,5.37,0,0,1,.68,0,2.31,2.31,0,0,0,.89,0,2.86,2.86,0,0,1,.68-.21,3.18,3.18,0,0,0-.87.13A2.57,2.57,0,0,1,49.2,125l-.39-.08c-.25.08-2,.68-2.18,1.38a3.64,3.64,0,0,0-.1.64A14.81,14.81,0,0,0,48.47,125.37Z"/><path class="cls-5" d="M46.68,128.15a3.7,3.7,0,0,0,.55-.27,7.46,7.46,0,0,0,1.74-1.7l.05-.07a.68.68,0,0,1,.34-.19,4.42,4.42,0,0,1,.58-.11,2.24,2.24,0,0,0,.78-.2,4,4,0,0,1,.86-.38,4.46,4.46,0,0,0,.57-.25h0a5.16,5.16,0,0,1-.65.16,3.61,3.61,0,0,0-1,.26,2.32,2.32,0,0,1-1,.05,5.25,5.25,0,0,0-.66,0,.51.51,0,0,0-.3.08,14.39,14.39,0,0,1-2.07,1.69,3.15,3.15,0,0,0,.14.94Z"/><path class="cls-5" d="M48.41,129.85a2.46,2.46,0,0,0,.56-.23,3,3,0,0,0,1-1.52l.15-.35a1.28,1.28,0,0,1,.18-.29,4.48,4.48,0,0,1,.56-.54c.14-.12.29-.25.41-.38s.28-.27.42-.4a4.4,4.4,0,0,0,.64-.7l0,0a4.46,4.46,0,0,1-.57.4,4.89,4.89,0,0,0-.64.43,3,3,0,0,1-.69.37,3.85,3.85,0,0,0-.51.25.62.62,0,0,0-.2.18l-.14.23a4.7,4.7,0,0,1-1.41,1.66,3.06,3.06,0,0,1-.58.26l-.27.11a3.09,3.09,0,0,0,.23.24l.53.43Z"/><path class="cls-7" d="M58.64,127.16a5.34,5.34,0,0,0-.71-.39,3.56,3.56,0,0,0-.5-.16l-.23-.06a5.85,5.85,0,0,1-.86-.35,5.53,5.53,0,0,0-.65-.27l-.67-.19-.06,0a5.31,5.31,0,0,1-1.16-.44,3.86,3.86,0,0,1-.34-.21h0a3.85,3.85,0,0,0,.34.21,4.09,4.09,0,0,0,1.36.16l.8,0h0a11,11,0,0,1,1.44,0c-.27-.09-.51-.16-.76-.23l-.69,0h0l-.79,0a3.85,3.85,0,0,1-1.33-.16,2.36,2.36,0,0,1-.36-.09h0a2.36,2.36,0,0,0,.36.09,4.13,4.13,0,0,0,1.82-.21l-.3-.12a3,3,0,0,1-1.89,0v0c-.11-.93-.54-1.51-1.05-1.34v0c-.25,0-.38.59-.3,1.12,0,0,0,.07,0,.1a5.75,5.75,0,0,1-.75.08,4.07,4.07,0,0,0-1.15.16,1.92,1.92,0,0,1-.73-.07,5.47,5.47,0,0,0-.62,0h0l.39.08a2.57,2.57,0,0,0,1.06.12,3.18,3.18,0,0,1,.87-.13,2.86,2.86,0,0,0-.68.21,2.31,2.31,0,0,1-.89,0,5.37,5.37,0,0,0-.68,0,.69.69,0,0,0-.42.14,14.73,14.73,0,0,1-1.95,1.6c0,.08,0,.16,0,.25a14.31,14.31,0,0,0,2.08-1.71.51.51,0,0,1,.3-.08,5.25,5.25,0,0,1,.66,0,2.32,2.32,0,0,0,1-.05,3.61,3.61,0,0,1,1-.26,5.16,5.16,0,0,0,.65-.16h0a4.46,4.46,0,0,1-.57.25,4,4,0,0,0-.86.38,2.24,2.24,0,0,1-.78.2,4.42,4.42,0,0,0-.58.11.68.68,0,0,0-.34.19l-.05.07a7.46,7.46,0,0,1-1.74,1.7,3.7,3.7,0,0,1-.55.27h0l.07.19h0a3.93,3.93,0,0,0,.58-.28,7.72,7.72,0,0,0,1.78-1.74l.05-.07a.49.49,0,0,1,.25-.13A4.3,4.3,0,0,1,50,126a2.34,2.34,0,0,0,.86-.23,3.81,3.81,0,0,1,.82-.36,5.17,5.17,0,0,0,.58-.24l0,.06a4.47,4.47,0,0,1-.57.4,5,5,0,0,0-.67.45,2.84,2.84,0,0,1-.64.35,4,4,0,0,0-.53.27.81.81,0,0,0-.26.24l-.14.23a4.48,4.48,0,0,1-1.35,1.59,2.87,2.87,0,0,1-.55.24l-.33.13,0,0,.15.15.28-.11a3.06,3.06,0,0,0,.58-.26,4.7,4.7,0,0,0,1.41-1.66l.14-.23a.62.62,0,0,1,.2-.18,3.85,3.85,0,0,1,.51-.25,3,3,0,0,0,.69-.37,4.89,4.89,0,0,1,.64-.43,4.46,4.46,0,0,0,.57-.4l0,0a4.4,4.4,0,0,1-.64.7c-.14.13-.28.26-.42.4s-.27.26-.41.38a4.48,4.48,0,0,0-.56.54,1.28,1.28,0,0,0-.18.29l-.15.35a3,3,0,0,1-1,1.52,2.46,2.46,0,0,1-.56.23l-.3.11.19.14.17-.06a2.65,2.65,0,0,0,.61-.25,3.22,3.22,0,0,0,1.12-1.61l.15-.35a1.09,1.09,0,0,1,.16-.24,4.29,4.29,0,0,1,.54-.52c.14-.12.29-.25.43-.39s.27-.27.41-.39a5.23,5.23,0,0,0,.6-.64l0-.06h0l0,.06,0,0h0l0,0a5.22,5.22,0,0,1-.8,1.28,5.59,5.59,0,0,0-.83,1.31,6.44,6.44,0,0,0-.23.78,2.24,2.24,0,0,1-.78,1.48,2.06,2.06,0,0,1-.54.21l.28.12a1.72,1.72,0,0,0,.37-.16,2.41,2.41,0,0,0,.87-1.59,6.27,6.27,0,0,1,.23-.76,5.44,5.44,0,0,1,.8-1.26,8.41,8.41,0,0,0,.59-.84,3.47,3.47,0,0,0,.16-.56h0a3.47,3.47,0,0,1-.16.56c-.09.23-.2.46-.31.69l-.21.46a5.21,5.21,0,0,0-.29.85l0,.09c0,.2-.08.41-.12.61a3.1,3.1,0,0,1-.56,1.58,1.21,1.21,0,0,1-.4.23,2.12,2.12,0,0,0-.29.14l-.12.08,0,0,.24.06,0,0a1.93,1.93,0,0,1,.26-.13,1.38,1.38,0,0,0,.46-.27,3.21,3.21,0,0,0,.61-1.69c0-.2.07-.41.12-.6l0-.09a5,5,0,0,1,.28-.82l.21-.45a7.43,7.43,0,0,0,.39-1c0-.1,0-.19,0-.29h0c0,.1,0,.2,0,.29,0-.09,0-.18.08-.27h0c0,.09,0,.18-.08.27,0,.3-.07.59-.13.87s-.06.31-.08.46-.07.5-.11.84l0,.35a7.19,7.19,0,0,1-.35,2,.63.63,0,0,1-.2.22,1.14,1.14,0,0,0-.16.15l-.06.08a2,2,0,0,0-.11.21h.22l.05-.1.05-.06.13-.12a.82.82,0,0,0,.26-.29,7.24,7.24,0,0,0,.37-2.05l0-.35c0-.34.07-.6.1-.83s.05-.3.08-.46a8.91,8.91,0,0,0,.14-1c0-.05,0-.1,0-.16h0c0,.05,0,.11,0,.16.05.33.09.65.12,1,0,.15,0,.31,0,.46l0,.19c0,.2,0,.41.06.64v.09c0,.45,0,1,0,1.41s0,.66,0,.89a1,1,0,0,1,0,.24,1.46,1.46,0,0,0,0,.15v.2h.2V131a1.28,1.28,0,0,1,0-.13,1.17,1.17,0,0,0,0-.28c0-.22,0-.54,0-.88s.05-1,0-1.43v-.09c0-.23,0-.44-.06-.65l0-.19c0-.15,0-.3,0-.46s0-.31,0-.46-.06-.44-.1-.67h0c0,.23.08.45.1.67l.19.49.17.46,0,0a5,5,0,0,1,.24.78l0,.09a6.49,6.49,0,0,1,.05,1,3.19,3.19,0,0,0,.2,1.4,1.85,1.85,0,0,0,.19.28l.1.13h0l.22,0v0l0-.08-.1-.14a1.68,1.68,0,0,1-.17-.26,3.07,3.07,0,0,1-.18-1.31,6.63,6.63,0,0,0-.06-1l0-.1a5.19,5.19,0,0,0-.25-.81l0,0-.17-.46c-.13-.36-.28-.74-.43-1.12l.07,0,1,1.65a3.65,3.65,0,0,1,.47.91,4.11,4.11,0,0,1,.12.9,2.14,2.14,0,0,0,.47,1.51,1.77,1.77,0,0,0,.32.23l.26-.06-.06,0a2,2,0,0,1-.38-.27,2,2,0,0,1-.41-1.38,4.25,4.25,0,0,0-.12-.95,3.8,3.8,0,0,0-.49-1l-.88-1.38-.22-.26h0l.22.26c.32.37.65.72.94,1a3.49,3.49,0,0,1,.55.67,3,3,0,0,1,.25.67,1.91,1.91,0,0,0,.66,1.15,2.54,2.54,0,0,0,.39.22,2.89,2.89,0,0,1,.32.18,1.9,1.9,0,0,1,.49.49l0,0,.13-.11a2.08,2.08,0,0,0-.53-.53,3,3,0,0,0-.35-.19,2.37,2.37,0,0,1-.36-.2,1.74,1.74,0,0,1-.58-1,3.2,3.2,0,0,0-.26-.71,3.64,3.64,0,0,0-.58-.71c-.31-.32-.66-.7-1-1.1l-.2-.17h0l.2.17-.18-.21h0l.18.21a10,10,0,0,0,1.1.78,4.42,4.42,0,0,1,.63.44,2.82,2.82,0,0,1,.38.45,2.25,2.25,0,0,0,.83.77l.34.14a3.11,3.11,0,0,1,.37.16,3.59,3.59,0,0,1,.89.76l.1.1.13-.15-.08-.09a3.75,3.75,0,0,0-.94-.8,3.27,3.27,0,0,0-.4-.17l-.32-.13a2.06,2.06,0,0,1-.76-.71,3,3,0,0,0-.41-.48,4.57,4.57,0,0,0-.66-.46,10,10,0,0,1-1-.73l-.3-.19h0l.3.19a5.57,5.57,0,0,0,1.17.44l.06,0,.66.19a5.39,5.39,0,0,1,.62.26,6,6,0,0,0,.88.36l.24.07a3.41,3.41,0,0,1,.47.15,5.2,5.2,0,0,1,.68.37,2.94,2.94,0,0,0,.61.31l.05-.19A2.85,2.85,0,0,1,58.64,127.16Zm-6.52-2.37a5.15,5.15,0,0,1-.64.15A5.14,5.14,0,0,0,52.12,124.79Zm0,.12h0Z"/><path class="cls-2" d="M127.4,236.89A99.83,99.83,0,0,1,45.53,79.11,4.6,4.6,0,0,1,53,84.47a90.6,90.6,0,0,0,94,140.9,4.6,4.6,0,0,1,2.05,9A100.75,100.75,0,0,1,127.4,236.89Z"/><path class="cls-2" d="M23,85.36l1.85-2.63,1.53,1.08-6.65,9.46-1.53-1.08,2-2.83L8,80.77,7,84.24l-1.86-.56,2.45-9.19Z"/><path class="cls-2" d="M30.45,78.73l-1.57-.54A10.65,10.65,0,0,0,29,72.3a10.16,10.16,0,0,0-2.82-4.87,6,6,0,0,1-1.28,4.16,5.62,5.62,0,0,1-3.84,2.47,6,6,0,0,1-4.49-1.13A6,6,0,0,1,14,68.49,7.92,7.92,0,0,1,15.57,63a8.07,8.07,0,0,1,5.17-3.54A7.9,7.9,0,0,1,26.89,61a11.89,11.89,0,0,1,4.83,7.48A16.46,16.46,0,0,1,30.45,78.73ZM24.32,66.42a5.13,5.13,0,0,0-1.92-2.2,5.86,5.86,0,0,0-3-1.14A2.49,2.49,0,0,0,17,64.17a2.34,2.34,0,0,0-.34,2.16,4.45,4.45,0,0,0,1.82,2.18,5.79,5.79,0,0,0,3.2,1.18,2.55,2.55,0,0,0,2.31-1A2.25,2.25,0,0,0,24.32,66.42Z"/><path class="cls-2" d="M153.26,248l.65,1.52a10.65,10.65,0,0,0-4.46,3.85,10.16,10.16,0,0,0-1.71,5.36,6,6,0,0,1,3.94-1.85,5.62,5.62,0,0,1,4.41,1.18,6.39,6.39,0,0,1,.66,9,7.92,7.92,0,0,1-5.13,2.49,8.07,8.07,0,0,1-6.1-1.45,7.9,7.9,0,0,1-3-5.61,11.89,11.89,0,0,1,2.29-8.6A16.46,16.46,0,0,1,153.26,248Zm-5,12.81a5.13,5.13,0,0,0-.33,2.9,5.86,5.86,0,0,0,1.18,3,2.49,2.49,0,0,0,2.38,1,2.34,2.34,0,0,0,1.83-1.2,4.45,4.45,0,0,0,.39-2.81,5.8,5.8,0,0,0-1.28-3.16,2.55,2.55,0,0,0-2.31-1A2.25,2.25,0,0,0,148.27,260.81Z"/><path class="cls-2" d="M126.84,271.2a11.46,11.46,0,0,0,4.82-4,11.14,11.14,0,0,0,2-5.55,5.26,5.26,0,0,1-1.66,1.27,6.79,6.79,0,0,1-2.23.67,5.66,5.66,0,0,1-4.39-1.17,5.9,5.9,0,0,1-2.19-4.07,6,6,0,0,1,1.45-4.94,7.61,7.61,0,0,1,5-2.48,8.38,8.38,0,0,1,6.23,1.42,7.76,7.76,0,0,1,3,5.59,11.59,11.59,0,0,1-2.49,8.64,17.81,17.81,0,0,1-9.06,6Zm1.24-17.26a4.73,4.73,0,0,0-.33,2.84A5.78,5.78,0,0,0,129,260a2.57,2.57,0,0,0,2.29,1,2.25,2.25,0,0,0,1.86-1.3,4.82,4.82,0,0,0,.35-2.75,6.11,6.11,0,0,0-1.22-3.11,2.61,2.61,0,0,0-2.51-1.06A2.18,2.18,0,0,0,128.08,253.94Z"/><circle class="cls-8" cx="37.56" cy="141.37" r="0.48"/><circle class="cls-8" cx="40.97" cy="145.21" r="0.35"/><circle class="cls-8" cx="43.12" cy="159.93" r="0.71"/><circle class="cls-8" cx="40.21" cy="158.95" r="0.74" transform="translate(-122.14 181.87) rotate(-83.84)"/><circle class="cls-8" cx="41.35" cy="163.93" r="0.58" transform="translate(-126.07 187.45) rotate(-83.84)"/><circle class="cls-8" cx="43.97" cy="168.03" r="0.35" transform="translate(-30.49 11.11) rotate(-10.72)"/><circle class="cls-8" cx="43.85" cy="171.46" r="0.35"/><circle class="cls-8" cx="90.6" cy="136.61" r="0.49"/><circle class="cls-8" cx="103.42" cy="136.07" r="0.49"/><circle class="cls-8" cx="103.78" cy="133.34" r="0.32"/><circle class="cls-8" cx="106.81" cy="137.64" r="0.32"/><circle class="cls-8" cx="100.79" cy="137.6" r="0.55"/><circle class="cls-8" cx="109.73" cy="134.88" r="0.55"/><circle class="cls-8" cx="85.74" cy="132.79" r="0.77"/><circle class="cls-8" cx="91.85" cy="131.3" r="0.71"/><circle class="cls-8" cx="87.71" cy="133.32" r="0.28"/><circle class="cls-8" cx="144.9" cy="150.16" r="0.36"/><circle class="cls-8" cx="160.21" cy="152.15" r="0.27"/><circle class="cls-8" cx="165.01" cy="156.69" r="0.27" transform="translate(-60.24 188.98) rotate(-51.67)"/><circle class="cls-8" cx="148.81" cy="149.8" r="0.36"/><circle class="cls-8" cx="150.99" cy="151.2" r="0.6"/><circle class="cls-8" cx="148.81" cy="153.51" r="0.55"/><circle class="cls-8" cx="155.53" cy="151.86" r="1.1"/><circle class="cls-8" cx="171.41" cy="152.64" r="0.96"/><circle class="cls-8" cx="165.36" cy="151.6" r="0.72"/><circle class="cls-8" cx="163.58" cy="152.29" r="0.72"/><circle class="cls-8" cx="157.61" cy="150.79" r="0.47"/><circle class="cls-8" cx="168.8" cy="154.35" r="0.47"/><circle class="cls-8" cx="159.95" cy="154.61" r="0.55"/><path class="cls-1" d="M93.11,141.16h0a.69.69,0,0,0-.2-.06A.6.6,0,0,1,93.11,141.16Z"/><path class="cls-1" d="M111.63,161.05c.49-1.34,2-5.66-.25-6.62s-1.5-2.7-2.3-5.62-3.39-3.44-4.8-3.94-5.79-1.34-7.28-1.67a20,20,0,0,1-4.23-2.05l-.11-.06a5.46,5.46,0,0,0-3.43-1.21,5.05,5.05,0,0,0-3.68,1.53A23.35,23.35,0,0,1,80.1,145c-1.61.6-4.9,1.89-5.78,7.51a15.66,15.66,0,0,0,.82,7.55c1,2.94,2.23,5.66,4.62,7.33A15.68,15.68,0,0,0,83,169.29a4.73,4.73,0,0,0,.81.64c3,3.62,16.52.82,16.52.82s13.59-3.18,12-4.75A4.42,4.42,0,0,1,111.63,161.05Z"/><path class="cls-9" d="M106,168.83l-.34-.51a28.92,28.92,0,0,0-4.18-4.58,21.2,21.2,0,0,1-5-6,1.22,1.22,0,0,1-.06.15,1.61,1.61,0,0,1-.87.65,4.78,4.78,0,0,1-1.09.19,1.22,1.22,0,0,1-.58,0,1,1,0,0,1-.47-.54,13.73,13.73,0,0,1-3.17,1.53l-1.06.41a15.1,15.1,0,0,0-2.2,1.1c-.51.31-1,.69-1.54,1-1.29.92-2.62,1.86-3.77,1.86h0a3.13,3.13,0,0,1-1.13-.29,5.36,5.36,0,0,0-.78-.26l-.36-.06a6.94,6.94,0,0,0-2.39.25l.26.46a6.18,6.18,0,0,1,2.07-.21l.31.05a5,5,0,0,1,.71.24,3.61,3.61,0,0,0,1.31.32h0c1.32,0,2.71-1,4.07-2,.5-.36,1-.73,1.51-1a14.38,14.38,0,0,1,2.13-1.06l1.05-.41c.68-.26,1.37-.53,2.05-.86-.46.37-.93.71-1.4,1l-.86.62c-.51.38-1,.79-1.55,1.23l-.28.23-.91.75a16.82,16.82,0,0,1-3.91,2.75,1.67,1.67,0,0,1-.76,0,2.9,2.9,0,0,0-.55,0L82,166a10.88,10.88,0,0,0-2.26.87l-.14.06c.12.09.22.19.35.28l.11.07a10,10,0,0,1,2-.79l.21,0a2.53,2.53,0,0,1,.46,0,2.15,2.15,0,0,0,1-.07,16.69,16.69,0,0,0,4.07-2.84l.91-.75.28-.23c.53-.43,1-.84,1.53-1.22l.85-.62c.6-.43,1.22-.88,1.81-1.4-.42.58-.85,1.13-1.27,1.66l-.65.83-.28.36c-.36.47-.73,1-1.18,1.44-.79.85-1.78,1.76-2.66,2.56-.68.62-1.26,1.16-1.67,1.58a2.64,2.64,0,0,1-.46.39,3.84,3.84,0,0,0-.31.23l-.15.13c-.3.27-.65.57-1,.88l.39.33,1-.86.11-.09.27-.2a3.18,3.18,0,0,0,.54-.45c.4-.42,1-1,1.64-1.56.88-.81,1.88-1.73,2.68-2.59.47-.5.85-1,1.21-1.48l.27-.36.65-.83c.47-.6,1-1.21,1.42-1.87-.32.77-.64,1.53-1,2.26l-.49,1.13a11,11,0,0,1-1.06,2,17,17,0,0,1-1.64,1.87,8.32,8.32,0,0,0-2.16,2.95,4.56,4.56,0,0,0-.16.86c0,.13,0,.26-.05.4s0,.13,0,.2-.06.18-.09.27l.49.11c0-.09.07-.17.09-.26s0-.16,0-.23,0-.29.06-.43a4.21,4.21,0,0,1,.14-.77,8,8,0,0,1,2-2.74,17.28,17.28,0,0,0,1.69-1.93A11.39,11.39,0,0,0,92.7,163l.49-1.13c.33-.76.67-1.54,1-2.34l-.83,4a9.32,9.32,0,0,1-.76,2.49,10.47,10.47,0,0,1-1.39,1.87c-.92,1.07-1.88,2.17-1.83,3.61,0,.06,0,.11,0,.17l.51,0c0-.07,0-.14,0-.22,0-1.24.81-2.22,1.71-3.26a10.91,10.91,0,0,0,1.46-2,9.82,9.82,0,0,0,.81-2.63l.78-3.79c-.08,1-.14,2.12-.2,3.35a9.81,9.81,0,0,1-.29,2.29,8.91,8.91,0,0,1-.82,1.74,5.26,5.26,0,0,0-1,3.42,6,6,0,0,0,.28,1l.52,0v0a6,6,0,0,1-.29-1.06,4.8,4.8,0,0,1,.92-3.09,9.27,9.27,0,0,0,.87-1.84,10.19,10.19,0,0,0,.31-2.43c.07-1.37.14-2.57.23-3.69.07,1,.18,2.11.35,3.33l0,.13a11.94,11.94,0,0,1,.16,2,9.09,9.09,0,0,1-.27,1.64,6.09,6.09,0,0,0-.11,3.19,8.38,8.38,0,0,0,.37,1c.09.21.17.42.25.63l.51-.06,0-.09c-.08-.23-.17-.45-.27-.67a8.08,8.08,0,0,1-.35-.94,5.62,5.62,0,0,1,.12-2.94,9.55,9.55,0,0,0,.28-1.73A12.2,12.2,0,0,0,96,163l0-.13c-.18-1.29-.29-2.43-.36-3.5a28.15,28.15,0,0,0,.95,3.23l.13.38c.2.56.39,1.09.52,1.6a14.72,14.72,0,0,1,.29,1.6,10.7,10.7,0,0,0,.73,2.89c.12.27.25.54.39.81s.24.47.35.71l.09.21c0,.09.06.19.1.28l.5-.09c0-.13-.08-.26-.13-.38l-.1-.23c-.11-.25-.24-.49-.36-.74s-.27-.52-.38-.78a10.16,10.16,0,0,1-.69-2.76,15,15,0,0,0-.31-1.65c-.14-.53-.34-1.09-.53-1.64l-.13-.38a27.73,27.73,0,0,1-.94-3.21,20.19,20.19,0,0,0,1.57,3l.6,1,.54.85c.42.68.78,1.32,1.16,2s.77,1.38,1.25,2.15l.29.46c.2.31.39.62.57.94l.11.21c.09.17.17.35.26.53l.5-.14c-.1-.21-.2-.42-.31-.63l-.12-.21c-.18-.33-.39-.65-.59-1l-.28-.45c-.47-.76-.86-1.46-1.24-2.13s-.75-1.33-1.17-2l-.54-.86-.59-.95a19.83,19.83,0,0,1-1.48-2.86,25.93,25.93,0,0,0,4.44,5,28.54,28.54,0,0,1,4.11,4.49l.34.51.17.25.5-.16Z"/><path class="cls-9" d="M93.12,157.49a13.32,13.32,0,0,1-3.74.92,14.26,14.26,0,0,0-3.84.92,16.38,16.38,0,0,0-1.82,1c-1.36.83-2.64,1.62-4.05,1.32a5.7,5.7,0,0,1-1.48-.63,9.64,9.64,0,0,0-1-.5,5.71,5.71,0,0,0-1.75-.37l.19.52A5,5,0,0,1,77,161a9.06,9.06,0,0,1,1,.48,6.18,6.18,0,0,0,1.62.68,3.44,3.44,0,0,0,.72.08,7.41,7.41,0,0,0,3.7-1.46,16.17,16.17,0,0,1,1.76-1,13.94,13.94,0,0,1,3.71-.89,14,14,0,0,0,3.86-1l0,0Z"/><path class="cls-9" d="M92.89,156.38c-.63-.12-1.26-.3-1.91-.49a15.71,15.71,0,0,0-2.66-.63,14.37,14.37,0,0,0-2.67-.05,21.51,21.51,0,0,1-6-.19,9.52,9.52,0,0,1-1.49-.49l-.65-.25c-.55-.2-1.11-.35-1.65-.5s-1-.29-1.5-.44c0,.17,0,.34,0,.52.47.15.95.29,1.45.42s1,.28,1.56.47L78,155a9.93,9.93,0,0,0,1.57.51,22.18,22.18,0,0,0,6.16.2,13.94,13.94,0,0,1,2.58,0,15.43,15.43,0,0,1,2.57.61c.54.16,1.08.32,1.64.45a21.08,21.08,0,0,1-2.19-.16,17.72,17.72,0,0,0-2.89-.15,16.83,16.83,0,0,0-2.38.3,13.11,13.11,0,0,1-5.38.33,7.33,7.33,0,0,1-1.43-.52c-.27-.12-.55-.24-.83-.35a10,10,0,0,0-1.75-.45c-.43-.07-.85-.13-1.26-.19,0,.17,0,.35.06.52.37,0,.74.1,1.11.16a9.35,9.35,0,0,1,1.66.43c.27.1.54.22.8.33a7.8,7.8,0,0,0,1.53.55,8.73,8.73,0,0,0,1.8.18,18.7,18.7,0,0,0,3.79-.5,16.41,16.41,0,0,1,2.3-.29,15.4,15.4,0,0,1,2.46.11h-.1a16.24,16.24,0,0,0-3.31.34,17.84,17.84,0,0,0-2.09.65,8.41,8.41,0,0,1-4.72.83,6.28,6.28,0,0,1-1.45-.57c-.3-.15-.61-.3-.94-.43a7.15,7.15,0,0,0-1.9-.42c-.24,0-.48,0-.73,0,0,.17.08.34.12.51l.56,0a6.67,6.67,0,0,1,1.76.39c.3.12.6.26.89.41a6.8,6.8,0,0,0,1.57.62,5.34,5.34,0,0,0,1.11.11,11.11,11.11,0,0,0,3.9-1,17.25,17.25,0,0,1,2-.63,15.89,15.89,0,0,1,3.21-.33,16.62,16.62,0,0,0,3.16-.32h.09A2.34,2.34,0,0,1,92.89,156.38Z"/><path class="cls-9" d="M93.18,155.59c-.47-.21-.93-.46-1.4-.72a12.81,12.81,0,0,0-2.53-1.15,12.6,12.6,0,0,0-3-.41,40.38,40.38,0,0,1-6.67-.71,16,16,0,0,1-1.85-.55l-.36-.12c-.42-.14-.83-.28-1.24-.44a10.44,10.44,0,0,1-1.38-.67c0,.17-.09.33-.13.51A11.21,11.21,0,0,0,76,152c.41.16.83.3,1.26.45l.36.12a16.26,16.26,0,0,0,1.91.56,40.69,40.69,0,0,0,6.75.71,12.25,12.25,0,0,1,2.85.39,12.4,12.4,0,0,1,2.43,1.11c.46.25.93.51,1.41.73a1.57,1.57,0,0,1,.05-.17A1,1,0,0,1,93.18,155.59Z"/><path class="cls-9" d="M94.09,155.17a14.46,14.46,0,0,1-1.53-1.24,10.37,10.37,0,0,0-2.39-1.75,10.39,10.39,0,0,0-3.14-.75l-.12,0c-2.5-.33-5-.74-7.3-1.22a11.59,11.59,0,0,1-3.17-1,6,6,0,0,1-.82-.53c-.08.15-.15.3-.22.46a6.47,6.47,0,0,0,.81.52,12,12,0,0,0,3.31,1c2.36.49,4.83.9,7.34,1.23l.12,0a10,10,0,0,1,3,.71,9.79,9.79,0,0,1,2.27,1.67c.4.36.82.72,1.25,1a1.41,1.41,0,0,1,.42-.17A1.69,1.69,0,0,1,94.09,155.17Z"/><path class="cls-10" d="M93.11,141.16h0l0,0h0Z"/><path class="cls-10" d="M77.38,156.26c.28.1.56.23.83.35l.6.26a7.62,7.62,0,0,1,.12-1.52c-.33-.11-.66-.22-1-.35l-.64-.24c-.53-.19-1.08-.34-1.56-.47s-1-.28-1.45-.42c0-.18,0-.35,0-.52a14.19,14.19,0,0,0,0,2.28c.42.06.84.11,1.26.19A10,10,0,0,1,77.38,156.26Z"/><path class="cls-10" d="M77.49,154.29l.65.25c.31.12.6.23.9.32a5.47,5.47,0,0,1,.28-.82,5,5,0,0,1,.31-.62l.15-.27-.27,0a16.26,16.26,0,0,1-1.91-.56l-.36-.12c-.43-.14-.85-.29-1.26-.45a11.21,11.21,0,0,1-1.33-.63c-.07.3-.13.62-.18.95a9.55,9.55,0,0,0-.13,1.06c.48.16,1,.3,1.5.44S76.94,154.09,77.49,154.29Z"/><path class="cls-10" d="M76.16,151.5c.4.16.82.3,1.24.44l.36.12a16,16,0,0,0,1.85.55l.43.08c.29-.55.58-1.15.86-1.73l-1.41-.26a12,12,0,0,1-3.31-1,6.47,6.47,0,0,1-.81-.52c.07-.16.14-.31.22-.46a10.84,10.84,0,0,0-1,2.68c0-.18.09-.34.13-.51A10.44,10.44,0,0,0,76.16,151.5Z"/><path class="cls-10" d="M79.6,150.19l1.53.28c.42-.91.8-1.74,1-2.17l0,0a5,5,0,0,1,.23-.45,2.35,2.35,0,0,1,1-1.26h0a3.4,3.4,0,0,1,.84-.59l.24-.13c.65-.42,1.36-.9,1.87-1.28l.57-.48c.19-.2.46-.45.76-.72h0a4.8,4.8,0,0,1,.62-.52,5.92,5.92,0,0,1,1.23-.82c.72-.3,2.56-1.09,3.34-.91a.69.69,0,0,1,.2.06,5.74,5.74,0,0,0-3.72-1.44,5.05,5.05,0,0,0-3.68,1.53,23.35,23.35,0,0,1-5.45,3.54,7.9,7.9,0,0,0-4.64,3.88,6,6,0,0,0,.82.53A11.59,11.59,0,0,0,79.6,150.19Z"/><path class="cls-10" d="M79.35,163.46l.36.06a3.63,3.63,0,0,1,.41.14c0-.17-.09-.34-.12-.52l0-.09c-.08-.31-.15-.59-.2-.87l-.22,0a6.18,6.18,0,0,1-1.62-.68,9.06,9.06,0,0,0-1-.48,5,5,0,0,0-1.37-.31l-.19-.52a5.71,5.71,0,0,1,1.75.37,9.64,9.64,0,0,1,1,.5,5.7,5.7,0,0,0,1.48.63h0c0-.15-.06-.31-.08-.45l-.42-1.9a8.83,8.83,0,0,1-1.19-.49c-.29-.14-.59-.29-.89-.41a6.67,6.67,0,0,0-1.76-.39l-.56,0c0-.17-.08-.34-.12-.51a17.29,17.29,0,0,0,.64,2.34A26.09,26.09,0,0,0,77,163.71,6.94,6.94,0,0,1,79.35,163.46Z"/><path class="cls-10" d="M77.27,158c.32.12.64.28.94.43s.57.27.85.38l-.08-.41,0-.1c0-.25-.08-.47-.09-.62h0c0-.06,0-.13,0-.2-.29-.11-.57-.22-.84-.34s-.53-.23-.8-.33a9.35,9.35,0,0,0-1.66-.43c-.37-.07-.74-.11-1.11-.16.05.44.12.89.22,1.35.24,0,.48,0,.73,0A7.15,7.15,0,0,1,77.27,158Z"/><path class="cls-10" d="M79.91,167.16c-.12-.09-.23-.19-.35-.28l.14-.06c.48-.22.94-.43,1.38-.6a10.38,10.38,0,0,1-.8-2,4.85,4.85,0,0,0-.68-.23l-.31-.05a6.18,6.18,0,0,0-2.07.21l-.26-.46a9.9,9.9,0,0,0,3,3.45,14.87,14.87,0,0,0,3.3,1.95h0a14.11,14.11,0,0,1-1.7-2.21l-.16-.23c-.41.15-.86.35-1.32.57Z"/><polygon class="cls-9" points="76.96 163.72 76.96 163.72 76.96 163.72 76.96 163.72"/><path class="cls-9" d="M74.37,155.63c0,.17,0,.35.06.52h0c0-.17,0-.35-.06-.52Z"/><polygon class="cls-9" points="74.34 153.35 74.34 153.35 74.34 153.35 74.34 153.35"/><polygon class="cls-9" points="74.65 157.5 74.65 157.5 74.65 157.5 74.65 157.5"/><polygon class="cls-9" points="74.65 151.34 74.65 151.34 74.65 151.34 74.65 151.34"/><polygon class="cls-9" points="75.61 148.66 75.61 148.66 75.61 148.66 75.61 148.66"/><path class="cls-5" d="M92.48,156.82c-.56-.12-1.1-.29-1.64-.45a15.43,15.43,0,0,0-2.57-.61,13.94,13.94,0,0,0-2.58,0,22.18,22.18,0,0,1-6.16-.2c-.2,0-.39-.1-.58-.16a8.28,8.28,0,0,0-.11,1.52,5,5,0,0,0,.82.26,13.11,13.11,0,0,0,5.38-.33,16.83,16.83,0,0,1,2.38-.3,17.72,17.72,0,0,1,2.89.15A21.08,21.08,0,0,0,92.48,156.82Z"/><path class="cls-5" d="M84.38,158.12a17.84,17.84,0,0,1,2.09-.65,16.24,16.24,0,0,1,3.31-.34h.1a15.4,15.4,0,0,0-2.46-.11,16.41,16.41,0,0,0-2.3.29,18.7,18.7,0,0,1-3.79.5,8.73,8.73,0,0,1-1.8-.18,5.07,5.07,0,0,1-.69-.21v.21a10.09,10.09,0,0,0,.19,1.13,3.84,3.84,0,0,0,.6.2A8.41,8.41,0,0,0,84.38,158.12Z"/><path class="cls-5" d="M82.23,165.92a2.9,2.9,0,0,1,.55,0,1.67,1.67,0,0,0,.76,0,16.82,16.82,0,0,0,3.91-2.75l.91-.75.28-.23c.54-.44,1-.85,1.55-1.23l.86-.62c.46-.33.94-.67,1.4-1-.68.33-1.37.6-2.05.86l-1.05.41a14.38,14.38,0,0,0-2.13,1.06c-.49.3-1,.67-1.51,1-1.35,1-2.75,2-4.07,2h0a3.61,3.61,0,0,1-1.31-.32h0a10.38,10.38,0,0,0,.8,2A5.37,5.37,0,0,1,82,166Z"/><path class="cls-5" d="M83.85,169.67l-.34-.28Z"/><path class="cls-5" d="M84.53,168.5l.15-.13a3.84,3.84,0,0,1,.31-.23,2.64,2.64,0,0,0,.46-.39c.41-.43,1-1,1.67-1.58.88-.8,1.87-1.71,2.66-2.56.45-.48.82-1,1.18-1.44l.28-.36.65-.83c.42-.53.85-1.08,1.27-1.66-.6.51-1.21,1-1.81,1.4l-.85.62c-.5.37-1,.78-1.53,1.22l-.28.23-.91.75a16.69,16.69,0,0,1-4.07,2.84,2.15,2.15,0,0,1-1,.07,2.53,2.53,0,0,0-.46,0l-.21,0a4.67,4.67,0,0,0-.72.22l.16.23a13.46,13.46,0,0,0,2,2.48C83.87,169.07,84.23,168.77,84.53,168.5Z"/><path class="cls-5" d="M112,161.06c.42-1.14,1.59-4.41.54-6h0l-1-.55-1-.54c-.54-.3-1.08-.6-1.64-.87a6.1,6.1,0,0,1-2.16-1.46c-.91-1.11-.9-2.6-1.43-3.87-.46-1.11-1.17-1.78-1.06-3h0c-1.67-.5-5.57-1.26-7-1.57a20,20,0,0,1-4.23-2.05c-.59-.44-2.77.5-3.56.83a11.65,11.65,0,0,0-2.67,2.12,41.13,41.13,0,0,1-3.48,2.44c-.84.6-.71.84-1.23,1.76-.25.44-.62,1.26-1,2.17,1.88.36,3.81.68,5.78.94l.12,0a10.39,10.39,0,0,1,3.14.75,10.37,10.37,0,0,1,2.39,1.75,14.46,14.46,0,0,0,1.53,1.24,1.69,1.69,0,0,0-.2,0,1.41,1.41,0,0,0-.42.17c-.44-.33-.85-.69-1.25-1A9.79,9.79,0,0,0,90,152.64a10,10,0,0,0-3-.71l-.12,0c-2-.27-4-.6-5.93-1-.28.59-.57,1.19-.86,1.73a42.08,42.08,0,0,0,6.24.63,12.6,12.6,0,0,1,3,.41,12.81,12.81,0,0,1,2.53,1.15c.47.26.93.51,1.4.72a1,1,0,0,0-.18.28,1.57,1.57,0,0,0-.05.17c-.48-.22-1-.48-1.41-.73a12.4,12.4,0,0,0-2.43-1.11,12.25,12.25,0,0,0-2.85-.39,41.72,41.72,0,0,1-6.48-.67l-.15.27a5.31,5.31,0,0,0-.58,1.44,5.81,5.81,0,0,0,.58.16,21.51,21.51,0,0,0,6,.19,14.37,14.37,0,0,1,2.67.05,15.71,15.71,0,0,1,2.66.63c.65.19,1.28.37,1.91.49a2.34,2.34,0,0,0,.17.93H93a16.62,16.62,0,0,1-3.16.32,15.89,15.89,0,0,0-3.21.33,17.25,17.25,0,0,0-2,.63,11.11,11.11,0,0,1-3.9,1,5.34,5.34,0,0,1-1.11-.11,3.86,3.86,0,0,1-.37-.12c.15.68.33,1.48.52,2.35,1.4.28,2.68-.49,4-1.32a16.38,16.38,0,0,1,1.82-1,14.26,14.26,0,0,1,3.84-.92,13.32,13.32,0,0,0,3.74-.92l.17.43,0,0a14,14,0,0,1-3.86,1,13.94,13.94,0,0,0-3.71.89,16.17,16.17,0,0,0-1.76,1,7.41,7.41,0,0,1-3.7,1.46,3.57,3.57,0,0,1-.48-.05q.1.47.2,1c0,.18.08.35.12.52l.37.12a3.13,3.13,0,0,0,1.13.29h0c1.15,0,2.49-.95,3.77-1.86.51-.36,1-.74,1.54-1a15.1,15.1,0,0,1,2.2-1.1l1.06-.41a13.73,13.73,0,0,0,3.17-1.53,1,1,0,0,0,.47.54,1.22,1.22,0,0,0,.58,0,4.78,4.78,0,0,0,1.09-.19,1.61,1.61,0,0,0,.87-.65,1.22,1.22,0,0,0,.06-.15,21.2,21.2,0,0,0,5,6,28.92,28.92,0,0,1,4.18,4.58l.34.51.24.37-.5.16-.17-.25-.34-.51a28.54,28.54,0,0,0-4.11-4.49,25.93,25.93,0,0,1-4.44-5,19.83,19.83,0,0,0,1.48,2.86l.59.95.54.86c.43.69.79,1.34,1.17,2s.77,1.37,1.24,2.13l.28.45c.2.32.4.64.59,1l.12.21c.11.21.21.42.31.63l-.5.14c-.09-.18-.17-.35-.26-.53l-.11-.21c-.18-.32-.37-.63-.57-.94l-.29-.46c-.47-.77-.87-1.47-1.25-2.15s-.74-1.32-1.16-2l-.54-.85-.6-1a20.19,20.19,0,0,1-1.57-3,27.73,27.73,0,0,0,.94,3.21l.13.38c.19.55.39,1.11.53,1.64a15,15,0,0,1,.31,1.65,10.16,10.16,0,0,0,.69,2.76c.11.26.25.52.38.78s.25.49.36.74l.1.23c.05.13.09.25.13.38l-.5.09c0-.09-.06-.19-.1-.28l-.09-.21c-.11-.24-.23-.48-.35-.71s-.28-.54-.39-.81a10.7,10.7,0,0,1-.73-2.89,14.72,14.72,0,0,0-.29-1.6c-.13-.51-.32-1-.52-1.6l-.13-.38a28.15,28.15,0,0,1-.95-3.23c.07,1.08.18,2.22.36,3.5l0,.13a12.2,12.2,0,0,1,.16,2.1,9.55,9.55,0,0,1-.28,1.73,5.62,5.62,0,0,0-.12,2.94,8.08,8.08,0,0,0,.35.94c.09.22.19.45.27.67l0,.09-.51.06c-.08-.21-.16-.42-.25-.63a8.38,8.38,0,0,1-.37-1,6.09,6.09,0,0,1,.11-3.19,9.09,9.09,0,0,0,.27-1.64,11.94,11.94,0,0,0-.16-2l0-.13c-.17-1.22-.28-2.3-.35-3.33-.09,1.13-.16,2.33-.23,3.69a10.19,10.19,0,0,1-.31,2.43,9.27,9.27,0,0,1-.87,1.84,4.8,4.8,0,0,0-.92,3.09,6,6,0,0,0,.29,1.06v0l-.52,0a6,6,0,0,1-.28-1,5.26,5.26,0,0,1,1-3.42,8.91,8.91,0,0,0,.82-1.74,9.81,9.81,0,0,0,.29-2.29c.06-1.23.12-2.33.2-3.35l-.78,3.79a9.82,9.82,0,0,1-.81,2.63,10.91,10.91,0,0,1-1.46,2c-.9,1-1.75,2-1.71,3.26,0,.07,0,.15,0,.22l-.51,0c0-.06,0-.11,0-.17,0-1.44.91-2.54,1.83-3.61a10.47,10.47,0,0,0,1.39-1.87,9.32,9.32,0,0,0,.76-2.49l.83-4c-.33.8-.67,1.58-1,2.34L92.7,163a11.39,11.39,0,0,1-1.11,2.13,17.28,17.28,0,0,1-1.69,1.93,8,8,0,0,0-2,2.74,4.21,4.21,0,0,0-.14.77c0,.14,0,.28-.06.43s0,.15,0,.23-.06.17-.09.26l-.49-.11c0-.09.07-.18.09-.27s0-.13,0-.2,0-.27.05-.4a4.56,4.56,0,0,1,.16-.86,8.32,8.32,0,0,1,2.16-2.95,17,17,0,0,0,1.64-1.87,11,11,0,0,0,1.06-2l.49-1.13c.32-.73.64-1.49,1-2.26-.47.66-.95,1.28-1.42,1.87l-.65.83-.27.36c-.37.48-.75,1-1.21,1.48-.8.86-1.8,1.78-2.68,2.59-.64.59-1.25,1.15-1.64,1.56a3.18,3.18,0,0,1-.54.45l-.27.2-.11.09-1,.86c.1.08.21.16.31.22,1.32,1.59,4.67,1.94,8,1.84a57,57,0,0,0,8.51-1s8.4-2,11.19-4a3.86,3.86,0,0,0,.39-.32l0,0a2.09,2.09,0,0,0,.28-.33h0a.73.73,0,0,0,0-.94A3.37,3.37,0,0,1,112,161.06Z"/><path class="cls-3" d="M123.92,146.4c-1.23-1.26-4.18-.79-4.18-.79s-1.42.05-2.64,2.35c-1.63,4.1,1.45,5.75,2.12,5.86a18.08,18.08,0,0,0,3.25.23,2.81,2.81,0,0,0,2.15-1.85C125.81,149.29,125.15,147.66,123.92,146.4Zm-1.44,6.1c-2.61.5-3.63-1.1-3.63-1.1a2.55,2.55,0,0,1,.5-3.84,2.91,2.91,0,0,1,4.35.62C124,148.71,124.85,151.54,122.48,152.49Z"/><path class="cls-5" d="M119.35,147.54a2.55,2.55,0,0,0-.5,3.84s1,1.61,3.63,1.1c2.37-1,1.47-3.78,1.22-4.33A2.91,2.91,0,0,0,119.35,147.54Zm2.21,3.74a1.91,1.91,0,0,1-2.13-1.62,2,2,0,0,1,1.13-1.93,2.24,2.24,0,0,1,2.29.88C123.08,148.79,123.44,151.12,121.56,151.28Z"/><path class="cls-11" d="M120.56,147.73a2,2,0,0,0-1.13,1.93,1.91,1.91,0,0,0,2.13,1.62c1.88-.16,1.52-2.5,1.28-2.67A2.24,2.24,0,0,0,120.56,147.73Z"/><path class="cls-3" d="M59.76,166.76c.06-.18.14-.36.2-.53a12.54,12.54,0,0,0,.4-2.57,7.73,7.73,0,0,0-2-4.91,6.94,6.94,0,0,0-9.82,0l-1.09,1.41a15.81,15.81,0,0,0-2.17,4.09,5.26,5.26,0,0,0-.12,2.77,5.17,5.17,0,0,0,.82,2.58,8.77,8.77,0,0,0,1.32,1.6c1.4-.86,2.73-1.56,3.93-2.27A19.79,19.79,0,0,1,59.76,166.76Z"/><path class="cls-5" d="M62.18,166.74s-1,0-2.42,0c-.08.21-.15.42-.24.64.87-.17,1.74-.31,2.62-.42A.79.79,0,0,1,62.18,166.74Z"/><path class="cls-9" d="M67,184.36a36.9,36.9,0,0,0,6.17-5,36.61,36.61,0,0,0,4-5.52l2-3.19-.43,0-1.91,3a36.45,36.45,0,0,1-3.93,5.46A36.61,36.61,0,0,1,66.82,184l-1.17.82A100.54,100.54,0,0,0,55.51,193l0,0,1.06-.52a100.38,100.38,0,0,1,9.26-7.41Z"/><path class="cls-5" d="M47.9,171.75a36.23,36.23,0,0,1,11.63-4.34c.09-.21.16-.42.24-.64a19.79,19.79,0,0,0-8.57,2.17c-1.2.71-2.53,1.41-3.93,2.27a29.56,29.56,0,0,0-3.43,2.42l.4.86a20.16,20.16,0,0,1,3.32-2.54Z"/><path class="cls-5" d="M56.8,183.6c.62-.56,1.25-1.11,1.89-1.67,1.49-1.3,3-2.65,4.42-4.12.69-.73,1.32-1.53,1.93-2.31a31.52,31.52,0,0,1,2-2.43,18.33,18.33,0,0,1,3.38-2.72l-1.33-.15a18.7,18.7,0,0,0-4.23,3,29.06,29.06,0,0,0-2.22,2.51c-.56.68-1.13,1.38-1.75,2-1.23,1.3-2.56,2.53-3.85,3.72-.74.68-1.5,1.39-2.23,2.09-1.22,1.17-2.39,2.41-3.52,3.68l.72,1.06C53.58,186.66,55.16,185.08,56.8,183.6Z"/><path class="cls-5" d="M51.31,175.7a28.72,28.72,0,0,1,3.57-3.33,26.21,26.21,0,0,1,8.19-4l-.25-.2a29,29,0,0,0-10.16,4.34,27.26,27.26,0,0,0-4,3.58q-1.24,1.29-2.35,2.61c.26.5.54,1,.82,1.55,1.05-1.26,2.25-2.6,3.7-4.11Z"/><path class="cls-5" d="M53.69,179c.69-.71,1.39-1.41,2.07-2.13.44-.46.86-.93,1.28-1.4a27.37,27.37,0,0,1,2.73-2.79,21.23,21.23,0,0,1,5.43-3.25c-.26-.08-.51-.17-.73-.26a23.15,23.15,0,0,0-6.9,3.67,27.48,27.48,0,0,0-3,3l-1,1-.38.4c-1.64,1.71-3.32,3.48-4.83,5.29l.81,1.36c.33-.39.65-.79,1-1.17C51.3,181.4,52.51,180.16,53.69,179Z"/><path class="cls-5" d="M53.3,176.51l.95-1a27.69,27.69,0,0,1,3.07-3,23.33,23.33,0,0,1,6.63-3.59l-.45-.24a26,26,0,0,0-8.39,4A28.44,28.44,0,0,0,51.59,176l-.47.49c-1.48,1.55-2.71,2.91-3.78,4.2q.39.71.82,1.46c1.49-1.79,3.15-3.52,4.76-5.2Z"/><path class="cls-5" d="M56.83,181.19c1.28-1.18,2.61-2.41,3.83-3.7.61-.64,1.18-1.34,1.73-2a29.4,29.4,0,0,1,2.26-2.54,18.64,18.64,0,0,1,3.86-2.81l-1.15-.19a19.47,19.47,0,0,0-4.89,3.15A27.71,27.71,0,0,0,60,175.69c-.49.58-1,1.17-1.54,1.74-1,1.07-2.08,2.11-3.11,3.11s-1.84,1.79-2.72,2.7-1.54,1.66-2.29,2.52l.75,1.15c1.11-1.25,2.26-2.47,3.47-3.63C55.33,182.58,56.09,181.87,56.83,181.19Z"/><path class="cls-5" d="M60.66,182.54a51.12,51.12,0,0,0,4.91-4.41,32.37,32.37,0,0,0,2.14-2.63c.58-.77,1.18-1.56,1.83-2.29a19.2,19.2,0,0,1,3-2.71l-1.45-.1a18.45,18.45,0,0,0-3.74,2.93c-.72.75-1.38,1.59-2,2.4s-1.25,1.59-2,2.33c-1.4,1.49-2.95,2.84-4.45,4.15-.63.55-1.27,1.1-1.89,1.66-1.66,1.5-3.25,3.09-4.77,4.75l.69,1a77.54,77.54,0,0,1,6-5.7Z"/><path class="cls-5" d="M52.44,172.23a29.24,29.24,0,0,1,10.07-4.35l-.08-.12a32.71,32.71,0,0,0-12.22,4.65,23,23,0,0,0-4,3.39c-.3.31-.59.64-.89,1q.38.78.8,1.6c.72-.85,1.47-1.69,2.26-2.51A27.46,27.46,0,0,1,52.44,172.23Z"/><path class="cls-5" d="M66.82,184a36.61,36.61,0,0,0,6.11-4.93,36.45,36.45,0,0,0,3.93-5.46l1.91-3H77.29a36.68,36.68,0,0,0-2.56,3.11c-.36.5-.71,1-1.07,1.52a33.19,33.19,0,0,1-2.9,3.8A40.38,40.38,0,0,1,65,183.9l-1.29,1a92.13,92.13,0,0,0-8.73,7.44l.57.76a100.54,100.54,0,0,1,10.14-8.19Z"/><path class="cls-5" d="M64.73,183.59a40.12,40.12,0,0,0,5.74-4.8A32.88,32.88,0,0,0,73.34,175c.35-.51.71-1,1.07-1.53a35.93,35.93,0,0,1,2.36-2.88l-1.51,0a22.88,22.88,0,0,0-3,3c-.53.66-1,1.35-1.53,2a32,32,0,0,1-2.44,3.09,44.94,44.94,0,0,1-5.39,4.67l-1.45,1.14a84.58,84.58,0,0,0-7.39,6.61l.62.84a92.5,92.5,0,0,1,8.74-7.43Z"/><path class="cls-5" d="M62.68,183.09A44.69,44.69,0,0,0,68,178.46a31.92,31.92,0,0,0,2.41-3.06c.49-.68,1-1.38,1.54-2a22.64,22.64,0,0,1,2.7-2.77l-1.5-.05a19.37,19.37,0,0,0-3.35,2.93c-.64.72-1.23,1.5-1.81,2.27a32.67,32.67,0,0,1-2.16,2.66,51.28,51.28,0,0,1-4.94,4.44l-1.64,1.36a77,77,0,0,0-6.06,5.73l.65.89a85.11,85.11,0,0,1,7.38-6.6Z"/><path class="cls-5" d="M55.11,180.26c1-1,2.09-2,3.1-3.1.53-.56,1-1.15,1.52-1.72a27.93,27.93,0,0,1,2.47-2.65,19.46,19.46,0,0,1,4.51-3l-.94-.23A21.16,21.16,0,0,0,60,172.94a27.22,27.22,0,0,0-2.69,2.75c-.42.47-.84.95-1.28,1.41-.69.72-1.38,1.43-2.07,2.13-1.17,1.2-2.38,2.43-3.5,3.68-.37.41-.72.84-1.07,1.26l.77,1.24c.72-.83,1.46-1.65,2.22-2.44S54.2,181.14,55.11,180.26Z"/><path class="cls-5" d="M50,172.08a33.07,33.07,0,0,1,12.24-4.68v0a36.19,36.19,0,0,0-14.46,4.91,19.83,19.83,0,0,0-3.34,2.57l.74,1.55c.26-.29.52-.58.79-.86A23.47,23.47,0,0,1,50,172.08Z"/><path class="cls-5" d="M79.19,170.66l-2,3.19a36.61,36.61,0,0,1-4,5.52,36.9,36.9,0,0,1-6.17,5l-1.17.82a100.38,100.38,0,0,0-9.26,7.41l-1.06.52c7.91-3.75,18.82-10.6,25.7-21.55C81.24,171.55,80.92,170.87,79.19,170.66Z"/><path class="cls-9" d="M79.19,170.66l-.22,0,.22,0Z"/><path class="cls-9" d="M55.51,193l0,0,0,0Z"/><path class="cls-9" d="M79,170.64l-.21,0-1.91,3a36.45,36.45,0,0,1-3.93,5.46A36.61,36.61,0,0,1,66.82,184l-1.17.82A100.54,100.54,0,0,0,55.51,193l0,0,1.06-.52a100.38,100.38,0,0,1,9.26-7.41l1.17-.82a36.9,36.9,0,0,0,6.17-5,36.61,36.61,0,0,0,4-5.52l2-3.19Z"/><path class="cls-9" d="M65,183.9a40.38,40.38,0,0,0,5.8-4.85,33.19,33.19,0,0,0,2.9-3.8c.35-.51.71-1,1.07-1.52a36.68,36.68,0,0,1,2.56-3.11h-.52a35.93,35.93,0,0,0-2.36,2.88c-.36.5-.72,1-1.07,1.53a32.88,32.88,0,0,1-2.87,3.75,40.12,40.12,0,0,1-5.74,4.8l-1.29,1A92.5,92.5,0,0,0,54.7,192l.23.31a92.13,92.13,0,0,1,8.73-7.44Z"/><path class="cls-9" d="M62.91,183.39a44.94,44.94,0,0,0,5.39-4.67,32,32,0,0,0,2.44-3.09c.49-.68,1-1.38,1.53-2a22.88,22.88,0,0,1,3-3h-.58a22.64,22.64,0,0,0-2.7,2.77c-.54.66-1,1.37-1.54,2A31.92,31.92,0,0,1,68,178.46a44.69,44.69,0,0,1-5.34,4.63l-1.45,1.14a85.11,85.11,0,0,0-7.38,6.6l.23.32a84.58,84.58,0,0,1,7.39-6.61Z"/><path class="cls-9" d="M60.91,182.84a51.28,51.28,0,0,0,4.94-4.44A32.67,32.67,0,0,0,68,175.74c.58-.76,1.17-1.55,1.81-2.27a19.37,19.37,0,0,1,3.35-2.93l-.62,0a19.2,19.2,0,0,0-3,2.71c-.65.73-1.25,1.52-1.83,2.29a32.37,32.37,0,0,1-2.14,2.63,51.12,51.12,0,0,1-4.91,4.41L59,183.91a77.54,77.54,0,0,0-6,5.7l.23.32a77,77,0,0,1,6.06-5.73Z"/><path class="cls-9" d="M57.06,183.88c.62-.56,1.25-1.11,1.89-1.66,1.5-1.31,3-2.66,4.45-4.15.7-.74,1.33-1.55,2-2.33s1.3-1.66,2-2.4a18.45,18.45,0,0,1,3.74-2.93l-.63-.05a18.33,18.33,0,0,0-3.38,2.72,31.52,31.52,0,0,0-2,2.43c-.61.78-1.24,1.58-1.93,2.31-1.38,1.47-2.93,2.82-4.42,4.12-.64.55-1.27,1.11-1.89,1.67-1.65,1.48-3.23,3.06-4.74,4.71l.22.33C53.81,187,55.4,185.38,57.06,183.88Z"/><path class="cls-9" d="M57.09,181.47c1.29-1.19,2.62-2.41,3.85-3.72.62-.65,1.19-1.36,1.75-2a29.06,29.06,0,0,1,2.22-2.51,18.7,18.7,0,0,1,4.23-3l-.64-.08a18.64,18.64,0,0,0-3.86,2.81,29.4,29.4,0,0,0-2.26,2.54c-.55.67-1.12,1.37-1.73,2-1.22,1.3-2.55,2.52-3.83,3.7-.74.68-1.51,1.39-2.24,2.1-1.2,1.16-2.35,2.38-3.47,3.63l.22.33c1.13-1.27,2.3-2.51,3.52-3.68C55.59,182.86,56.35,182.15,57.09,181.47Z"/><path class="cls-9" d="M55.38,180.53c1-1,2.1-2,3.11-3.11.53-.56,1-1.16,1.54-1.74a27.71,27.71,0,0,1,2.44-2.61,19.47,19.47,0,0,1,4.89-3.15l-.64-.13a19.46,19.46,0,0,0-4.51,3,27.93,27.93,0,0,0-2.47,2.65c-.49.57-1,1.17-1.52,1.72-1,1.06-2.07,2.1-3.1,3.1s-1.84,1.79-2.73,2.71-1.5,1.61-2.22,2.44l.22.34c.74-.86,1.5-1.71,2.29-2.52S54.48,181.42,55.38,180.53Z"/><path class="cls-9" d="M54,179.24c.69-.71,1.39-1.41,2.07-2.13.44-.46.86-.94,1.28-1.41A27.22,27.22,0,0,1,60,172.94a21.16,21.16,0,0,1,5.77-3.37l-.59-.17a21.23,21.23,0,0,0-5.43,3.25A27.37,27.37,0,0,0,57,175.43c-.42.47-.84.94-1.28,1.4-.68.72-1.38,1.43-2.07,2.13-1.18,1.2-2.39,2.44-3.51,3.69-.34.38-.67.78-1,1.17l.21.35c.36-.42.71-.85,1.07-1.26C51.58,181.67,52.79,180.43,54,179.24Z"/><path class="cls-9" d="M53.58,176.78l1-1a27.48,27.48,0,0,1,3-3,23.15,23.15,0,0,1,6.9-3.67l-.51-.22a23.33,23.33,0,0,0-6.63,3.59,27.69,27.69,0,0,0-3.07,3l-.95,1-.38.4c-1.61,1.68-3.26,3.42-4.76,5.2l.21.35c1.51-1.81,3.2-3.58,4.83-5.29Z"/><path class="cls-9" d="M51.59,176a28.44,28.44,0,0,1,3.51-3.29,26,26,0,0,1,8.39-4,4.8,4.8,0,0,1-.43-.28,26.21,26.21,0,0,0-8.19,4,28.72,28.72,0,0,0-3.57,3.33l-.46.49c-1.45,1.51-2.65,2.84-3.7,4.11l.2.36c1.07-1.29,2.29-2.66,3.78-4.2Z"/><path class="cls-9" d="M52.66,172.54a29,29,0,0,1,10.16-4.34,2.62,2.62,0,0,1-.31-.32,29.24,29.24,0,0,0-10.07,4.35,27.46,27.46,0,0,0-4,3.63c-.79.82-1.54,1.66-2.26,2.51l.19.37q1.11-1.32,2.35-2.61A27.26,27.26,0,0,1,52.66,172.54Z"/><path class="cls-9" d="M50.2,172.41a32.71,32.71,0,0,1,12.22-4.65,1.68,1.68,0,0,1-.19-.36A33.07,33.07,0,0,0,50,172.08a23.47,23.47,0,0,0-4.05,3.45c-.27.28-.53.57-.79.86l.18.37c.29-.33.59-.65.89-1A23,23,0,0,1,50.2,172.41Z"/><path class="cls-9" d="M62.22,167.36a1.2,1.2,0,0,1-.07-.38,36.57,36.57,0,0,0-14.6,5,20.16,20.16,0,0,0-3.32,2.54l.17.36a19.83,19.83,0,0,1,3.34-2.57A36.19,36.19,0,0,1,62.22,167.36Z"/><path class="cls-3" d="M93,155.87a1.23,1.23,0,0,1,.89-.69,2.46,2.46,0,0,1,1.16.08,5,5,0,0,1,1.16.48.76.76,0,0,1,.28.23.82.82,0,0,1,.1.36,2.42,2.42,0,0,1-.17,1.53,1.61,1.61,0,0,1-.87.65,4.78,4.78,0,0,1-1.09.19.92.92,0,0,1-1.15-.78A2.6,2.6,0,0,1,93,155.87Z"/><path class="cls-3" d="M132.95,150.63a1.78,1.78,0,0,1-2.31-1.71.69.69,0,0,1,.08-.35.75.75,0,0,1,.32-.25,2.58,2.58,0,0,1,1.78-.26,1.58,1.58,0,0,1,1.19,1.27,1.15,1.15,0,0,1-1,1.27"/></g></svg>